<svg width="22" height="22" viewBox="0 0 22 22" fill="none" xmlns="http://www.w3.org/2000/svg">
<path fill-rule="evenodd" clip-rule="evenodd" d="M13.0347 2.03468C13.6675 1.40194 14.5607 1.14581 15.5834 1.14581H17.4167C18.4393 1.14581 19.3326 1.40194 19.9653 2.03468C20.5981 2.66742 20.8542 3.56067 20.8542 4.58331V6.41665C20.8542 7.43929 20.5981 8.33254 19.9653 8.96528C19.3326 9.59802 18.4393 9.85415 17.4167 9.85415H15.5834C14.5607 9.85415 13.6675 9.59802 13.0347 8.96528C12.402 8.33254 12.1459 7.43929 12.1459 6.41665V4.58331C12.1459 3.56067 12.402 2.66742 13.0347 2.03468ZM14.007 3.00695C13.7231 3.29088 13.5209 3.77262 13.5209 4.58331V6.41665C13.5209 7.22734 13.7231 7.70908 14.007 7.99301C14.2909 8.27694 14.7727 8.47915 15.5834 8.47915H17.4167C18.2274 8.47915 18.7091 8.27694 18.9931 7.99301C19.277 7.70908 19.4792 7.22734 19.4792 6.41665V4.58331C19.4792 3.77262 19.277 3.29088 18.9931 3.00695C18.7091 2.72302 18.2274 2.52081 17.4167 2.52081H15.5834C14.7727 2.52081 14.2909 2.72302 14.007 3.00695Z" fill="#002A5E"/>
<path fill-rule="evenodd" clip-rule="evenodd" d="M2.03474 13.0347C2.66748 12.4019 3.56073 12.1458 4.58337 12.1458H6.41671C7.43935 12.1458 8.33261 12.4019 8.96534 13.0347C9.59808 13.6674 9.85421 14.5607 9.85421 15.5833V17.4166C9.85421 18.4393 9.59808 19.3325 8.96534 19.9653C8.33261 20.598 7.43935 20.8541 6.41671 20.8541H4.58337C3.56073 20.8541 2.66748 20.598 2.03474 19.9653C1.402 19.3325 1.14587 18.4393 1.14587 17.4166V15.5833C1.14587 14.5607 1.402 13.6674 2.03474 13.0347ZM3.00701 14.0069C2.72308 14.2909 2.52087 14.7726 2.52087 15.5833V17.4166C2.52087 18.2273 2.72308 18.7091 3.00701 18.993C3.29094 19.2769 3.77268 19.4791 4.58337 19.4791H6.41671C7.2274 19.4791 7.70914 19.2769 7.99307 18.993C8.277 18.7091 8.47921 18.2273 8.47921 17.4166V15.5833C8.47921 14.7726 8.277 14.2909 7.99307 14.0069C7.70914 13.723 7.2274 13.5208 6.41671 13.5208H4.58337C3.77268 13.5208 3.29094 13.723 3.00701 14.0069Z" fill="#002A5E"/>
<path fill-rule="evenodd" clip-rule="evenodd" d="M5.50004 2.52081C3.85469 2.52081 2.52087 3.85463 2.52087 5.49998C2.52087 7.14533 3.85469 8.47915 5.50004 8.47915C7.14539 8.47915 8.47921 7.14533 8.47921 5.49998C8.47921 3.85463 7.14539 2.52081 5.50004 2.52081ZM1.14587 5.49998C1.14587 3.09524 3.0953 1.14581 5.50004 1.14581C7.90478 1.14581 9.85421 3.09524 9.85421 5.49998C9.85421 7.90472 7.90478 9.85415 5.50004 9.85415C3.0953 9.85415 1.14587 7.90472 1.14587 5.49998Z" fill="#002A5E"/>
<path fill-rule="evenodd" clip-rule="evenodd" d="M16.5 13.5208C14.8547 13.5208 13.5209 14.8546 13.5209 16.5C13.5209 18.1453 14.8547 19.4791 16.5 19.4791C18.1454 19.4791 19.4792 18.1453 19.4792 16.5C19.4792 14.8546 18.1454 13.5208 16.5 13.5208ZM12.1459 16.5C12.1459 14.0952 14.0953 12.1458 16.5 12.1458C18.9048 12.1458 20.8542 14.0952 20.8542 16.5C20.8542 18.9047 18.9048 20.8541 16.5 20.8541C14.0953 20.8541 12.1459 18.9047 12.1459 16.5Z" fill="#002A5E"/>
</svg>
