<svg width="90" height="72" viewBox="0 0 90 72" fill="none" xmlns="http://www.w3.org/2000/svg">
<path d="M72.7203 16.2782C70.0249 15.8225 66.4246 15.7223 63.3635 15.8478C64.3695 7.13899 58.3745 1.99431 49.5216 1.56898C44.3497 0.868952 39.4665 0.376004 33.5611 0.28828C28.3925 0.121534 23.0999 0.643409 17.0398 1.0297C8.26669 0.886826 1.84602 4.13391 0.978775 13.3976C-0.248186 25.8326 0.0898927 38.4995 1.56862 50.0305C1.94021 52.7916 2.44868 56.5735 5.72799 59.5238C7.79867 61.3869 10.5861 61.8871 13.0587 61.9997C14.0315 66.1356 16.9407 69.4401 21.2241 70.9735C28.0688 73.533 35.9805 69.4563 38.3582 62.5211C44.7164 62.5133 51.128 62.3644 57.2746 62.1803C58.4932 67.6411 64.0086 71.8027 69.7711 71.7379C76.2847 71.7935 82.2704 66.5216 83.1661 59.9516C87.211 58.2547 89.4096 55.0049 89.7132 50.2506C90.3657 40.6781 85.5683 18.567 72.7203 16.2782Z" fill="white"/>
<path d="M72.0112 20.7219C67.6873 20.0325 63.0884 20.3306 58.7205 20.6029C58.7444 19.5997 58.767 18.5983 58.7862 17.5997C58.857 13.9553 59.6135 11.0357 56.6223 8.42984C54.1418 6.26861 50.3513 6.26814 47.2585 5.82622C42.6912 5.17488 38.0867 4.87443 33.4772 4.78718C28.7882 4.69898 24.0977 4.98062 19.4304 5.40595C16.4708 5.67512 10.6991 5.34621 8.36468 7.5065C6.29811 9.41879 5.76059 11.19 5.45015 13.908C4.95908 18.2107 4.8222 22.5552 4.76846 26.8822C4.67474 34.404 5.02658 41.9728 6.028 49.4306C6.37254 51.9846 6.73814 54.3796 8.73815 56.1789C10.6123 57.8647 14.5829 57.5069 17.2921 57.4751C16.7702 61.4834 18.5576 65.2394 22.7404 66.7365C27.5884 68.4705 32.6181 65.5087 34.1615 60.8886C34.4992 59.8785 34.6333 58.9166 34.614 58.009C43.5631 58.0806 52.5083 57.8386 61.4518 57.5464C60.9608 61.5284 62.7528 65.2492 66.9098 66.7365C71.7578 68.4705 76.7885 65.5087 78.331 60.8886C78.8532 59.3259 78.9083 57.8721 78.6176 56.568C82.5437 55.9299 84.9414 54.3544 85.2221 49.964C85.6217 43.6953 83.9865 36.5493 81.4247 30.8726C79.5725 26.7715 76.9193 21.5065 72.0112 20.7219Z" fill="#68182B"/>
<path d="M25.7629 52.3373C23.0698 52.2417 21.2677 53.573 20.1956 55.9299C18.8662 59.9042 20.3941 64.7737 25.3573 64.6635C28.8208 64.5868 31.485 62.6428 32.039 59.1463C32.6429 55.3391 29.5479 52.4714 25.7629 52.3373ZM28.8363 59.2568C28.3012 60.905 26.7587 62.0419 24.9618 61.5862C23.8699 61.3097 23.1574 60.5756 22.8644 59.663C22.3403 58.0369 23.1511 56.3488 24.4753 55.6231C25.1225 55.2699 25.8828 55.1504 26.631 55.4091C28.3228 55.9928 29.4252 57.4384 28.8363 59.2568Z" fill="#A30133"/>
<path d="M27.4875 58.5067C27.3465 59.4047 26.8279 60.0708 25.8829 60.1732C24.4383 60.3298 23.967 59.0382 24.3482 57.8691C24.6234 57.3013 25.0653 56.8158 25.7364 56.7708C26.7034 56.705 27.6403 57.5337 27.4875 58.5067Z" fill="#E5E5E5"/>
<path d="M69.9326 52.3373C67.2408 52.2417 65.4383 53.5721 64.3658 55.9285C63.0364 59.9032 64.5624 64.7737 69.5266 64.6634C72.99 64.5867 75.6547 62.6427 76.2091 59.1462C76.8132 55.3391 73.7172 52.4714 69.9326 52.3373ZM73.0057 59.2568C72.4705 60.905 70.928 62.0419 69.1311 61.5862C68.026 61.3055 67.3098 60.5578 67.0227 59.6289C66.6005 58.2624 67.1068 56.4672 68.6427 55.6248C69.2909 55.2696 70.052 55.1503 70.8008 55.4089C72.4931 55.9928 73.5946 57.4384 73.0057 59.2568Z" fill="#A30133"/>
<path d="M71.6574 58.507C71.5164 59.4051 70.9979 60.0711 70.0521 60.1736C68.6074 60.3307 68.1352 59.0381 68.5188 57.8682C68.7935 57.3009 69.2359 56.8163 69.9065 56.7713C70.8729 56.7054 71.81 57.5341 71.6574 58.507Z" fill="#E5E5E5"/>
<path d="M78.1147 29.6142C79.7306 32.5957 80.7733 35.8984 81.5323 39.2109C81.8874 40.7625 81.7891 40.6882 80.0463 40.7061C78.3191 40.7231 76.5929 40.7042 74.864 40.633C71.0647 40.4774 66.7496 40.9137 66.2443 36.1558C65.9108 33.0143 65.3243 29.4727 69.0789 28.5517C70.8459 28.1177 72.6816 27.9587 74.5115 27.8728C76.4689 27.7809 77.3255 28.1585 78.1147 29.6142Z" fill="#E5E5E5"/>
<path d="M41.1027 36.441C38.5069 36.4685 35.6117 36.6693 33.1969 35.6128C31.6017 34.9155 30.2677 33.7745 28.8933 32.7396C25.868 30.4644 22.3086 30.3607 18.6545 30.4778C14.8038 30.6009 11.0413 30.8908 7.2747 31.5976C7.25636 30.2995 7.2513 29.0019 7.26 27.7042C7.27153 25.7934 7.66382 25.7098 9.4437 25.436C12.8672 24.9105 16.2921 24.7254 19.7873 24.6138C22.2374 24.5352 24.5668 24.7323 26.7587 25.9097C28.2457 26.7089 29.5694 28.0791 31.0352 28.9647C34.1211 30.8296 37.6153 30.6009 41.1027 30.6134C45.6048 30.629 50.1078 30.2996 54.6011 29.9693C55.9401 29.8705 56.1165 30.3937 56.1074 31.3643C56.0917 32.8029 56.0825 34.2449 56.0789 35.6868C51.0907 36.0391 46.1063 36.3873 41.1027 36.441Z" fill="#00EBED"/>
<path d="M7.93073 13.9081C8.56467 7.68219 14.4838 8.38399 19.4305 7.88657C27.2393 7.09976 35.0992 7.0666 42.9126 7.79061C47.0601 8.1742 56.4919 7.89116 56.3844 13.6826C56.31 17.6789 56.2246 21.6748 56.1772 25.6724C56.1703 26.2375 56.1634 26.8066 56.1556 27.3729C51.1418 27.7281 46.1322 28.0776 41.1028 28.1327C38.507 28.1607 35.6118 28.3606 33.197 27.304C31.6018 26.6062 30.2678 25.4652 28.8934 24.4313C25.8681 22.1561 22.3087 22.0524 18.6546 22.1695C15.4355 22.2724 12.2775 22.4919 9.12817 22.9743C7.34688 23.2471 7.32524 22.7634 7.38957 21.2812C7.49716 18.8195 7.68084 16.3606 7.93073 13.9081Z" fill="#FF2E60"/>
<path d="M33.8043 54.8235C31.0125 49.4014 21.7786 47.7262 18.3308 54.0986C18.046 54.6251 17.7354 54.9838 17.0102 54.9782C13.6019 54.952 9.55512 55.0852 8.79758 51.1344C8.30511 48.5676 8.06675 45.9525 7.83709 43.3526C7.63777 41.082 7.49901 38.8064 7.40482 36.5276C7.32862 34.6755 7.60143 34.0283 9.39425 33.7522C12.8352 33.2211 16.2748 33.0338 19.787 32.9213C22.2371 32.8432 24.5665 33.0398 26.7584 34.2175C28.2454 35.0168 29.5691 36.388 31.0349 37.2731C34.1208 39.138 37.615 38.9093 41.1024 38.9213C45.3992 38.936 49.6959 38.6375 53.983 38.3232C55.7987 38.191 56.0808 38.3421 56.1038 40.0647C56.1708 44.7477 56.3876 49.4261 56.9347 54.0504C57.0638 55.129 56.9691 55.2057 55.8732 55.2374C48.9371 55.4396 42 55.5829 35.0601 55.5355C34.0602 55.5281 34.3036 55.7923 33.8043 54.8235Z" fill="#FF2E60"/>
<path d="M77.1954 53.6015C73.7163 49.1407 65.5096 48.2134 62.4054 54.2803C62.076 54.9239 62.0062 55.0516 61.2869 55.0714C60.9203 55.0829 60.5538 55.0938 60.1863 55.1054C59.5933 55.1215 59.5125 54.9203 59.4311 54.2846C58.7026 48.6033 58.4679 42.823 58.4454 37.0329C58.4817 36.8445 58.4803 36.6517 58.4412 36.4684C58.4352 32.715 58.5147 28.9589 58.6066 25.2226C58.6562 23.2429 58.574 23.0862 60.3668 23.0058C62.7334 22.8988 65.1031 22.8561 67.472 22.8896C70.946 22.9369 73.1054 23.4151 75.0921 25.3692C72.0807 25.4863 68.9732 25.7275 66.2175 26.8969C63.235 28.1634 63.5194 32.3131 63.6493 34.8753C63.8257 38.3407 64.19 41.4215 67.8689 42.4665C71.7227 43.562 76.3613 43.4316 80.5712 43.2479C82.2161 43.1758 82.3213 43.1409 82.4826 44.7055C82.619 46.0455 82.6934 47.3927 82.737 48.74C82.8477 52.1745 81.506 53.5746 78.5129 54.101C77.6253 54.2555 77.7245 54.2822 77.1954 53.6015Z" fill="#A30133"/>
<path d="M9.12811 22.9738C12.2774 22.4915 15.4354 22.2719 18.6545 22.169C22.3086 22.0519 25.8681 22.1557 28.8933 24.4308C30.2677 25.4648 31.6016 26.6058 33.197 27.3036C35.6117 28.36 38.507 28.1603 41.1027 28.1323C46.1321 28.0771 51.1418 27.7276 56.1555 27.3725C56.1632 26.8062 56.1702 26.237 56.1771 25.672C56.1817 25.2581 56.1909 24.8443 56.1964 24.4299C56.0283 24.7284 55.8455 25.0205 55.6246 25.293C54.8556 26.2378 53.6084 26.3679 52.4951 26.4602C50.0312 26.6646 47.5438 26.6665 45.0734 26.7239C42.1657 26.7904 39.1722 27.1267 36.2728 26.9053C33.7152 26.7092 32.1089 25.0082 30.1153 23.6315C25.2224 20.2544 19.0818 20.9098 13.442 21.3867C11.1613 21.5797 8.55684 22.0067 7.90867 19.224C7.76168 18.5924 7.68078 17.9429 7.63351 17.2856C7.53202 18.616 7.44747 19.9476 7.38962 21.2806C7.32518 22.763 7.3467 23.2466 9.12811 22.9738Z" fill="#EA0F4D"/>
<path d="M54.0361 53.9749C51.8947 54.6051 49.3448 54.4614 47.1358 54.528C44.597 54.6046 42.0553 54.6171 39.5152 54.6046C37.6356 54.5959 36.1202 54.2013 34.846 52.7627C33.8932 51.6877 32.9227 50.7475 31.6912 50.0033C27.8176 47.6625 22.2503 48.4903 18.8842 51.3161C18.1235 51.9551 17.475 52.6822 16.6292 53.2234C15.5268 53.9285 14.1965 53.5877 13.0798 53.2077C11.3224 52.6106 10.1923 51.5123 9.33015 49.9064C8.80005 48.9175 8.45056 47.8559 8.16846 46.77C8.32779 48.233 8.52123 49.6915 8.79781 51.1342C9.55523 55.0851 13.6021 54.9519 17.0105 54.9781C17.7358 54.9836 18.0463 54.6248 18.331 54.0985C21.7789 47.726 31.0127 49.4013 33.8046 54.8233C34.3039 55.7921 34.0605 55.528 35.0605 55.5354C42.0003 55.5826 48.9373 55.4394 55.8735 55.2373C56.9695 55.2055 57.0641 55.1288 56.935 54.0503C56.8377 53.2257 56.7623 52.3971 56.6847 51.5689C56.0499 52.6852 55.2369 53.6218 54.0361 53.9749Z" fill="#EA0F4D"/>
<path d="M56.1043 40.0647C56.0813 38.3422 55.7992 38.191 53.9835 38.3233C49.6964 38.6375 45.3997 38.9361 41.1029 38.9214C37.6155 38.9094 34.1213 39.1382 31.0354 37.2732C29.5696 36.3881 28.2458 35.0168 26.7589 34.2175C24.5669 33.0397 22.2376 32.8431 19.7874 32.9213C16.2753 33.0339 12.8357 33.2213 9.39474 33.7522C7.60192 34.0283 7.32911 34.6756 7.40531 36.5276C7.41683 36.7949 7.43471 37.0609 7.44705 37.3283C8.00327 36.203 8.98493 35.5346 10.7057 35.2112C13.6978 34.6495 16.7934 34.3871 19.8361 34.4735C22.5422 34.5502 24.7934 35.2108 27.0474 36.6872C28.7139 37.7795 30.2573 39.1745 32.1402 39.8981C36.3087 41.4984 41.2729 41.1011 45.6399 40.7901C49.102 40.5444 52.9518 40.1094 56.1411 41.6367C56.1291 41.1126 56.112 40.5885 56.1043 40.0647Z" fill="#FF6699"/>
<path d="M42.9127 7.79057C35.0993 7.06667 27.2394 7.09971 19.4305 7.88652C14.5008 8.38265 8.60649 7.69038 7.94092 13.8498C8.68963 12.5273 9.64966 11.3633 11.0103 10.4827C13.014 9.18733 15.6952 8.91593 18.0052 8.72754C22.7769 8.33761 27.6408 8.39041 32.4255 8.42992C37.5535 8.4726 42.6146 8.95215 47.713 9.44098C50.4663 9.70415 52.9629 10.2912 55.0023 12.2811C55.5411 12.8066 55.9821 13.4221 56.3767 14.0753C56.3794 13.9444 56.3818 13.8134 56.3845 13.6825C56.4919 7.89111 47.0602 8.17416 42.9127 7.79057Z" fill="#FF6699"/>
<path d="M56.0838 34.8173C54.5872 35.2901 52.895 35.2005 51.302 35.2569C48.675 35.3497 46.0475 35.4365 43.4214 35.5357C41.2739 35.6166 39.1302 35.6538 36.9859 35.4793C34.0425 35.24 31.9846 33.985 29.7443 32.1541C26.5546 29.5454 23.6782 29.4283 19.715 29.6208C17.5202 29.7269 15.3328 29.8454 13.1477 30.0811C11.6662 30.2418 10.093 30.7182 8.61389 30.5151C8.0324 30.4351 7.60472 30.126 7.26758 29.7168C7.26993 30.3438 7.26523 30.9703 7.27452 31.5973C11.0411 30.8903 14.8036 30.6005 18.6543 30.4775C22.3084 30.3603 25.8679 30.4642 28.8931 32.7392C30.2675 33.7742 31.6014 34.9152 33.1967 35.6125C35.6115 36.6691 38.5067 36.4683 41.1025 36.4407C46.1062 36.387 51.0906 36.0388 56.0786 35.6864C56.0792 35.3961 56.0833 35.1072 56.0838 34.8173Z" fill="#19BFBB"/>
<path d="M54.6008 29.9688C50.1075 30.2991 45.6045 30.6284 41.1024 30.6129C37.615 30.6005 34.1208 30.8293 31.0349 28.9642C29.5691 28.0786 28.2453 26.7083 26.7584 25.9092C24.5664 24.7318 22.2371 24.5348 19.787 24.6133C16.2918 24.7249 12.8669 24.91 9.4434 25.4355C8.04334 25.6509 7.5077 25.7625 7.33496 26.724C11.6974 25.7341 16.2445 25.2403 20.7038 25.3105C23.0882 25.3486 25.3524 25.837 27.3946 27.0864C28.9551 28.0409 30.2867 29.2982 31.904 30.1732C35.5829 32.1645 40.677 31.4819 44.6752 31.3041C48.565 31.1313 52.322 30.6904 56.1047 31.2384C56.0946 30.3515 55.8783 29.8748 54.6008 29.9688Z" fill="#6CFFFB"/>
<path d="M64.2456 27.5169C62.687 28.9564 63.0783 31.9027 63.2465 33.7415C63.4013 35.4338 63.4362 37.4784 64.2534 39.0723C63.8405 37.84 63.727 36.3948 63.6494 34.8752C63.5194 32.313 63.2351 28.1633 66.2176 26.8968C68.7215 25.8344 71.5143 25.5394 74.263 25.4062C71.1132 24.7153 66.4678 25.465 64.2456 27.5169Z" fill="#EF6200"/>
<path d="M82.1485 51.9668C81.6073 52.2487 80.9933 52.4499 80.2836 52.5607C79.2276 52.7251 78.2621 52.8969 77.2689 52.4009C76.5556 52.0445 75.9327 51.2787 75.2679 50.8033C73.0208 49.1975 70.0273 48.7413 67.3548 49.2134C66.2887 49.4018 65.1246 49.8773 64.285 50.5653C63.7233 51.0265 60.8068 54.7619 60.2979 52.766C60.0668 51.8616 60.1054 50.7183 60.0457 49.7848C59.7457 45.1238 59.5394 40.455 59.2864 35.7908C59.0893 32.1744 59.0047 28.4932 58.6148 24.874C58.6125 24.9893 58.6093 25.0918 58.6066 25.2227C58.5147 28.959 58.4352 32.7151 58.4412 36.4684C58.4803 36.6517 58.4817 36.8446 58.4454 37.033C58.4678 42.823 58.7026 48.6035 59.4311 54.2846C59.5124 54.9203 59.5933 55.1215 60.1863 55.1054C60.5538 55.0939 60.9203 55.083 61.2869 55.0714C62.0062 55.0517 62.076 54.924 62.4054 54.2804C65.5096 48.2133 73.7164 49.1408 77.1954 53.6015C77.7245 54.2823 77.6253 54.2557 78.5128 54.1008C80.3029 53.7863 81.4971 53.1542 82.1485 51.9668Z" fill="#A30133"/>
<path d="M80.5713 43.2477C76.3614 43.4315 71.723 43.5619 67.869 42.4663C67.0876 42.2449 66.4634 41.9261 65.9512 41.5371C66.2218 41.8922 66.5194 42.2275 66.8841 42.5183C68.1998 43.567 70.3678 43.7448 71.9539 43.9964C73.8887 44.3042 75.8662 44.357 77.8203 44.2812C79.2815 44.2239 80.8423 43.7232 82.0779 44.7897C82.2562 44.9436 82.4013 45.1398 82.5345 45.3502C82.5162 45.1352 82.5042 44.9198 82.4827 44.7053C82.3215 43.1407 82.2162 43.1756 80.5713 43.2477Z" fill="#A30133"/>
<path d="M74.3162 24.6894C72.5294 23.3012 70.5004 22.9305 67.472 22.8896C65.1031 22.8561 62.7333 22.8988 60.3668 23.0058C60.0475 23.0205 59.8046 23.0412 59.5933 23.0701C62.1936 23.2887 64.8151 23.1528 67.4214 23.2833C69.77 23.4004 72.0815 23.9392 74.3162 24.6894Z" fill="#A30133"/>
<path d="M71.6574 58.507C71.7309 58.0402 71.549 57.6094 71.2381 57.292C71.3769 57.4951 71.4848 57.7178 71.5119 58.0371C71.5692 58.7012 71.0769 59.2704 70.5256 59.5588C69.7442 59.9672 68.9055 59.4771 68.646 58.6957C68.5243 58.3301 68.5853 57.9116 68.725 57.5174C68.6492 57.629 68.5785 57.7453 68.5188 57.8678C68.1352 59.0378 68.6074 60.3304 70.0521 60.1732C70.9979 60.0709 71.5164 59.4049 71.6574 58.507Z" fill="#C6C6C6"/>
<path d="M74.8634 40.6333C76.5924 40.7044 78.3187 40.7234 80.0457 40.7063C81.7885 40.6884 81.8868 40.7628 81.5318 39.2111C81.4698 38.941 81.4031 38.6723 81.3375 38.4027C81.0628 38.7899 80.7211 39.1133 80.2273 39.2713C79.4707 39.5139 78.6389 39.5487 77.8506 39.5855C75.8162 39.6793 73.7473 39.5 71.7431 39.1515C69.1607 38.7018 67.6683 37.6476 67.3256 34.8276C67.1171 33.1092 67.0941 30.6365 68.0133 28.9448C65.4571 30.241 65.9467 33.355 66.2439 36.1562C66.7491 40.914 71.0641 40.4776 74.8634 40.6333Z" fill="#C6C6C6"/>
<path d="M27.4875 58.5068C27.5292 58.2441 27.4861 57.9942 27.3892 57.7672C27.4209 57.9716 27.4255 58.1857 27.3574 58.4352C27.2164 58.957 26.7364 59.3144 26.2458 59.4719C25.5967 59.68 24.9596 59.3795 24.6041 58.8246C24.3024 58.3533 24.407 57.9321 24.5627 57.5049C24.4827 57.6206 24.4102 57.7415 24.3482 57.8692C23.967 59.0382 24.4383 60.3299 25.8829 60.1733C26.8278 60.0708 27.3464 59.4047 27.4875 58.5068Z" fill="#C6C6C6"/>
<path d="M74.4658 29.2882C72.6909 29.234 70.5783 29.5689 69.752 30.8201C68.9761 31.9933 68.9922 35.3763 70.5826 35.9335C71.3643 36.2087 73.7544 36.6722 75.6744 36.8499C78.9813 37.1559 79.402 35.1002 77.3037 31.3041C76.4782 29.8091 76.1259 29.3388 74.4658 29.2882Z" fill="#F4F4F4"/>
<path d="M25.8422 57.2105C25.2713 57.2183 24.9289 57.7484 25.172 58.177C25.4315 58.6354 26.1881 58.6607 26.5542 58.2927C27.0236 57.8197 26.4564 57.2028 25.8422 57.2105Z" fill="#F4F4F4"/>
<path d="M69.9718 57.2916C69.4005 57.2993 69.0586 57.8294 69.3012 58.2585C69.5607 58.7166 70.3173 58.7422 70.6834 58.3738C71.1533 57.9012 70.5856 57.2838 69.9718 57.2916Z" fill="#F4F4F4"/>
</svg>
