<svg width="46" height="46" viewBox="0 0 46 46" fill="none" xmlns="http://www.w3.org/2000/svg">
<rect width="46" height="46" rx="23" fill="#F0C274"/>
<path fill-rule="evenodd" clip-rule="evenodd" d="M23 14.5208C20.8484 14.5208 19.1042 16.265 19.1042 18.4166C19.1042 20.5683 20.8484 22.3125 23 22.3125C25.1516 22.3125 26.8959 20.5683 26.8959 18.4166C26.8959 16.265 25.1516 14.5208 23 14.5208ZM17.7292 18.4166C17.7292 15.5056 20.089 13.1458 23 13.1458C25.911 13.1458 28.2709 15.5056 28.2709 18.4166C28.2709 21.3276 25.911 23.6875 23 23.6875C20.089 23.6875 17.7292 21.3276 17.7292 18.4166Z" fill="white"/>
<path fill-rule="evenodd" clip-rule="evenodd" d="M14.4384 32.1667C14.4384 28.1142 18.414 25.0625 23 25.0625C27.586 25.0625 31.5617 28.1142 31.5617 32.1667C31.5617 32.5464 31.2539 32.8542 30.8742 32.8542C30.4945 32.8542 30.1867 32.5464 30.1867 32.1667C30.1867 29.1241 27.104 26.4375 23 26.4375C18.896 26.4375 15.8134 29.1241 15.8134 32.1667C15.8134 32.5464 15.5056 32.8542 15.1259 32.8542C14.7462 32.8542 14.4384 32.5464 14.4384 32.1667Z" fill="white"/>
</svg>
