<svg width="22" height="22" viewBox="0 0 22 22" fill="none" xmlns="http://www.w3.org/2000/svg">
<path d="M16.5 6.56338C16.445 6.55421 16.3808 6.55421 16.3258 6.56338C15.0608 6.51754 14.0525 5.48171 14.0525 4.19838C14.0525 2.88754 15.1067 1.83337 16.4175 1.83337C17.7283 1.83337 18.7825 2.89671 18.7825 4.19838C18.7733 5.48171 17.765 6.51754 16.5 6.56338Z" stroke="white" stroke-width="1.5" stroke-linecap="round" stroke-linejoin="round"/>
<path d="M15.5558 13.2367C16.8117 13.4476 18.1958 13.2276 19.1675 12.5767C20.46 11.7151 20.46 10.3034 19.1675 9.44173C18.1867 8.7909 16.7842 8.57089 15.5283 8.79089" stroke="white" stroke-width="1.5" stroke-linecap="round" stroke-linejoin="round"/>
<path d="M5.47244 6.56338C5.52744 6.55421 5.59161 6.55421 5.64661 6.56338C6.91161 6.51754 7.91994 5.48171 7.91994 4.19838C7.91994 2.88754 6.86578 1.83337 5.55494 1.83337C4.24411 1.83337 3.18994 2.89671 3.18994 4.19838C3.19911 5.48171 4.20744 6.51754 5.47244 6.56338Z" stroke="white" stroke-width="1.5" stroke-linecap="round" stroke-linejoin="round"/>
<path d="M6.41661 13.2367C5.16078 13.4476 3.77661 13.2276 2.80495 12.5767C1.51245 11.7151 1.51245 10.3034 2.80495 9.44173C3.78578 8.7909 5.18828 8.57089 6.44411 8.79089" stroke="white" stroke-width="1.5" stroke-linecap="round" stroke-linejoin="round"/>
<path d="M11 13.4108C10.945 13.4016 10.8808 13.4016 10.8258 13.4108C9.56082 13.365 8.55249 12.3291 8.55249 11.0458C8.55249 9.73495 9.60666 8.68079 10.9175 8.68079C12.2283 8.68079 13.2825 9.74412 13.2825 11.0458C13.2733 12.3291 12.265 13.3741 11 13.4108Z" stroke="white" stroke-width="1.5" stroke-linecap="round" stroke-linejoin="round"/>
<path d="M8.33253 16.2983C7.04003 17.16 7.04003 18.5717 8.33253 19.4333C9.7992 20.4142 12.2009 20.4142 13.6675 19.4333C14.96 18.5717 14.96 17.16 13.6675 16.2983C12.21 15.3267 9.7992 15.3267 8.33253 16.2983Z" stroke="white" stroke-width="1.5" stroke-linecap="round" stroke-linejoin="round"/>
</svg>
