<svg width="20" height="20" viewBox="0 0 20 20" fill="none" xmlns="http://www.w3.org/2000/svg">
<path fill-rule="evenodd" clip-rule="evenodd" d="M12.0347 1.03486C12.6675 0.402122 13.5607 0.145996 14.5834 0.145996H16.4167C17.4393 0.145996 18.3326 0.402122 18.9653 1.03486C19.5981 1.6676 19.8542 2.56085 19.8542 3.5835V5.41683C19.8542 6.43947 19.5981 7.33273 18.9653 7.96547C18.3326 8.5982 17.4393 8.85433 16.4167 8.85433H14.5834C13.5607 8.85433 12.6675 8.5982 12.0347 7.96547C11.402 7.33273 11.1459 6.43947 11.1459 5.41683V3.5835C11.1459 2.56085 11.402 1.6676 12.0347 1.03486ZM13.007 2.00713C12.7231 2.29106 12.5209 2.7728 12.5209 3.5835V5.41683C12.5209 6.22752 12.7231 6.70926 13.007 6.99319C13.2909 7.27712 13.7727 7.47933 14.5834 7.47933H16.4167C17.2274 7.47933 17.7091 7.27712 17.9931 6.99319C18.277 6.70926 18.4792 6.22752 18.4792 5.41683V3.5835C18.4792 2.7728 18.277 2.29106 17.9931 2.00713C17.7091 1.7232 17.2274 1.521 16.4167 1.521H14.5834C13.7727 1.521 13.2909 1.7232 13.007 2.00713Z" fill="white"/>
<path fill-rule="evenodd" clip-rule="evenodd" d="M1.03474 12.0349C1.66748 11.4021 2.56073 11.146 3.58337 11.146H5.41671C6.43935 11.146 7.33261 11.4021 7.96534 12.0349C8.59808 12.6676 8.85421 13.5609 8.85421 14.5835V16.4168C8.85421 17.4395 8.59808 18.3327 7.96534 18.9655C7.33261 19.5982 6.43935 19.8543 5.41671 19.8543H3.58337C2.56073 19.8543 1.66748 19.5982 1.03474 18.9655C0.402 18.3327 0.145874 17.4395 0.145874 16.4168V14.5835C0.145874 13.5609 0.402 12.6676 1.03474 12.0349ZM2.00701 13.0071C1.72308 13.2911 1.52087 13.7728 1.52087 14.5835V16.4168C1.52087 17.2275 1.72308 17.7093 2.00701 17.9932C2.29094 18.2771 2.77268 18.4793 3.58337 18.4793H5.41671C6.2274 18.4793 6.70914 18.2771 6.99307 17.9932C7.277 17.7093 7.47921 17.2275 7.47921 16.4168V14.5835C7.47921 13.7728 7.277 13.2911 6.99307 13.0071C6.70914 12.7232 6.2274 12.521 5.41671 12.521H3.58337C2.77268 12.521 2.29094 12.7232 2.00701 13.0071Z" fill="white"/>
<path fill-rule="evenodd" clip-rule="evenodd" d="M4.50004 1.521C2.85469 1.521 1.52087 2.85481 1.52087 4.50016C1.52087 6.14551 2.85469 7.47933 4.50004 7.47933C6.14539 7.47933 7.47921 6.14551 7.47921 4.50016C7.47921 2.85481 6.14539 1.521 4.50004 1.521ZM0.145874 4.50016C0.145874 2.09542 2.0953 0.145996 4.50004 0.145996C6.90478 0.145996 8.85421 2.09542 8.85421 4.50016C8.85421 6.9049 6.90478 8.85433 4.50004 8.85433C2.0953 8.85433 0.145874 6.9049 0.145874 4.50016Z" fill="white"/>
<path fill-rule="evenodd" clip-rule="evenodd" d="M15.5 12.521C13.8547 12.521 12.5209 13.8548 12.5209 15.5002C12.5209 17.1455 13.8547 18.4793 15.5 18.4793C17.1454 18.4793 18.4792 17.1455 18.4792 15.5002C18.4792 13.8548 17.1454 12.521 15.5 12.521ZM11.1459 15.5002C11.1459 13.0954 13.0953 11.146 15.5 11.146C17.9048 11.146 19.8542 13.0954 19.8542 15.5002C19.8542 17.9049 17.9048 19.8543 15.5 19.8543C13.0953 19.8543 11.1459 17.9049 11.1459 15.5002Z" fill="white"/>
</svg>
