<svg width="19" height="19" viewBox="0 0 19 19" fill="none" xmlns="http://www.w3.org/2000/svg">
<path d="M14.7467 4.69141L14.2819 12.2102C14.1631 14.1312 14.1038 15.0917 13.6223 15.7823C13.3841 16.1237 13.0777 16.4119 12.7222 16.6284C12.0032 17.0664 11.0409 17.0664 9.1162 17.0664C7.18901 17.0664 6.2254 17.0664 5.50596 16.6276C5.15027 16.4107 4.84367 16.122 4.60568 15.78C4.12433 15.0884 4.06626 14.1265 3.95013 12.2028L3.49667 4.69141" stroke="#FE3A46" stroke-width="1.125" stroke-linecap="round"/>
<path d="M2.37167 4.69238H15.8717M12.1634 4.69238L11.6515 3.63618C11.3114 2.93458 11.1413 2.58377 10.8479 2.36499C10.7829 2.31646 10.714 2.27329 10.6419 2.23591C10.3171 2.06738 9.92725 2.06738 9.14755 2.06738C8.34827 2.06738 7.94867 2.06738 7.61843 2.24297C7.54525 2.28189 7.47541 2.32681 7.40964 2.37726C7.1129 2.60491 6.94715 2.96855 6.61563 3.69583L6.16136 4.69238" stroke="#FE3A46" stroke-width="1.125" stroke-linecap="round"/>
<path d="M7.2457 12.9414V8.44141" stroke="#FE3A46" stroke-width="1.125" stroke-linecap="round"/>
<path d="M10.9967 12.9414V8.44141" stroke="#FE3A46" stroke-width="1.125" stroke-linecap="round"/>
</svg>
