<svg width="100" height="100" viewBox="0 0 100 100" fill="none" xmlns="http://www.w3.org/2000/svg">
<g clip-path="url(#clip0_89_6972)">
<path d="M22.3206 68.0084L30.1941 63.0135C32.3313 61.729 34.7621 61.014 37.2543 60.9368H51.7994C54.2353 61.0082 56.6187 61.6611 58.7509 62.8411L65.3393 66.6915C63.782 64.4033 62.8616 61.7419 62.6726 58.9806C62.4836 56.2192 63.0327 53.4572 64.2636 50.9781C65.4945 48.4991 67.3629 46.3921 69.677 44.8736C71.9911 43.3551 74.6676 42.4797 77.4318 42.3371V1.88086H21.875V68.2243C22.0295 68.1655 22.1786 68.0933 22.3206 68.0084Z" fill="#E1EBF4"/>
<path d="M90.7578 90.0234L89.5156 91.6016H82.7109C82.6641 91.2734 82.6016 90.9453 82.5312 90.625C82.3997 90.0926 82.23 89.5705 82.0234 89.0625C81.255 87.2121 79.9554 85.6309 78.289 84.5185C76.6225 83.4061 74.6638 82.8125 72.6602 82.8125C70.6565 82.8125 68.6978 83.4061 67.0313 84.5185C65.3649 85.6309 64.0654 87.2121 63.2969 89.0625C62.9525 89.8739 62.7186 90.7279 62.6016 91.6016H35.8359C35.539 89.3925 34.5224 87.3429 32.9435 85.7696C31.3646 84.1963 29.3113 83.1871 27.1012 82.8981C24.891 82.609 22.6473 83.0562 20.7169 84.1705C18.7865 85.2848 17.277 87.0041 16.4219 89.0625C16.2092 89.569 16.0368 90.0914 15.9063 90.625C15.8359 90.9453 15.7734 91.2734 15.7266 91.6016H10.8828L9.10156 84.4688L12.2656 73.4375C12.2656 73.4375 21.6797 72.5937 21.875 72.5937L34.5547 65.4609H52.2812L67.7266 73.4375L88.625 78.125L90.7578 90.0234Z" fill="#9387A2"/>
<path d="M67.4375 8.29588C67.0146 7.72476 66.4758 7.24933 65.8566 6.90065C65.2373 6.55197 64.5514 6.33791 63.8438 6.27245C63.4614 6.24512 63.0777 6.24512 62.6953 6.27245C61.9912 6.34325 61.3095 6.55969 60.6936 6.90803C60.0776 7.25637 59.5408 7.72899 59.1172 8.29588C57.9297 9.81151 58.1797 11.5303 58.3672 12.7881L58.4375 13.3037C58.836 16.5224 60.3203 18.3506 62.8203 18.7099C63.1386 18.7607 63.463 18.7607 63.7813 18.7099C67.5234 18.1318 67.9766 14.4912 68.125 13.3037C68.1484 13.1318 68.1719 12.9521 68.2031 12.7803C68.3828 11.5303 68.6328 9.81151 67.4375 8.29588ZM65.1094 12.3271C65.0781 12.5224 65.0547 12.7178 65.0235 12.9131C64.7422 15.2021 64.0547 15.499 63.2813 15.624C62.586 15.5224 61.8281 15.2178 61.5391 12.9131C61.5078 12.7178 61.4844 12.5224 61.4531 12.3349C61.2891 11.1865 61.2501 10.6474 61.5703 10.2412C61.77 9.97671 62.0282 9.76203 62.3247 9.61396C62.6212 9.46588 62.9479 9.38844 63.2793 9.38768C63.6107 9.38692 63.9378 9.46288 64.235 9.60959C64.5321 9.75631 64.7913 9.96981 64.9922 10.2334C65.3125 10.6474 65.2734 11.1865 65.1094 12.3271Z" fill="#2D4356"/>
<path d="M65.1094 12.3281C65.0781 12.5234 65.0547 12.7188 65.0235 12.9141C64.7422 15.2031 64.0547 15.5 63.2813 15.625C62.586 15.5234 61.8281 15.2188 61.5391 12.9141C61.5078 12.7188 61.4844 12.5234 61.4532 12.3359C61.2891 11.1875 61.2501 10.6484 61.5703 10.2422C61.77 9.97771 62.0282 9.76303 62.3247 9.61495C62.6212 9.46688 62.9479 9.38943 63.2793 9.38868C63.6107 9.38792 63.9378 9.46387 64.235 9.61059C64.5321 9.75731 64.7913 9.97081 64.9922 10.2344C65.3125 10.6484 65.2735 11.1875 65.1094 12.3281Z" fill="#E1EBF4"/>
<path d="M29.6879 14.8438H47.6567C48.0711 14.8438 48.4685 14.6791 48.7615 14.3861C49.0545 14.0931 49.2192 13.6957 49.2192 13.2812C49.2192 12.8668 49.0545 12.4694 48.7615 12.1764C48.4685 11.8834 48.0711 11.7188 47.6567 11.7188H29.6879C29.2735 11.7188 28.8761 11.8834 28.583 12.1764C28.29 12.4694 28.1254 12.8668 28.1254 13.2812C28.1254 13.6957 28.29 14.0931 28.583 14.3861C28.8761 14.6791 29.2735 14.8438 29.6879 14.8438ZM29.6879 21.0938H47.6567C48.0711 21.0938 48.4685 20.9291 48.7615 20.6361C49.0545 20.3431 49.2192 19.9457 49.2192 19.5312C49.2192 19.1168 49.0545 18.7194 48.7615 18.4264C48.4685 18.1334 48.0711 17.9688 47.6567 17.9688H29.6879C29.2735 17.9688 28.8761 18.1334 28.583 18.4264C28.29 18.7194 28.1254 19.1168 28.1254 19.5312C28.1254 19.9457 28.29 20.3431 28.583 20.6361C28.8761 20.9291 29.2735 21.0938 29.6879 21.0938ZM29.6879 27.3438H47.6567C48.0711 27.3438 48.4685 27.1791 48.7615 26.8861C49.0545 26.5931 49.2192 26.1957 49.2192 25.7812C49.2192 25.3668 49.0545 24.9694 48.7615 24.6764C48.4685 24.3834 48.0711 24.2188 47.6567 24.2188H29.6879C29.2735 24.2188 28.8761 24.3834 28.583 24.6764C28.29 24.9694 28.1254 25.3668 28.1254 25.7812C28.1254 26.1957 28.29 26.5931 28.583 26.8861C28.8761 27.1791 29.2735 27.3438 29.6879 27.3438ZM29.6879 33.5938H70.3129C70.7273 33.5938 71.1247 33.4291 71.4178 33.1361C71.7108 32.8431 71.8754 32.4457 71.8754 32.0312C71.8754 31.6168 71.7108 31.2194 71.4178 30.9264C71.1247 30.6334 70.7273 30.4688 70.3129 30.4688H29.6879C29.2735 30.4688 28.8761 30.6334 28.583 30.9264C28.29 31.2194 28.1254 31.6168 28.1254 32.0312C28.1254 32.4457 28.29 32.8431 28.583 33.1361C28.8761 33.4291 29.2735 33.5938 29.6879 33.5938ZM29.6879 39.8438H70.3129C70.7273 39.8438 71.1247 39.6791 71.4178 39.3861C71.7108 39.0931 71.8754 38.6957 71.8754 38.2812C71.8754 37.8668 71.7108 37.4694 71.4178 37.1764C71.1247 36.8834 70.7273 36.7188 70.3129 36.7188H29.6879C29.2735 36.7188 28.8761 36.8834 28.583 37.1764C28.29 37.4694 28.1254 37.8668 28.1254 38.2812C28.1254 38.6957 28.29 39.0931 28.583 39.3861C28.8761 39.6791 29.2735 39.8438 29.6879 39.8438ZM64.2266 77.9453L54.3594 71.7969C52.961 70.7734 51.9375 70.3125 51.0391 70.3125H39.8516C38.814 70.4123 37.7988 70.676 36.8438 71.0938C36.8438 71.0938 29.0313 75.3438 28.8281 75.4766C28.6112 75.6179 28.4331 75.8113 28.3103 76.0393C28.1874 76.2672 28.1237 76.5223 28.125 76.7812V79.6875C28.1262 80.1015 28.2912 80.4982 28.584 80.791C28.8768 81.0838 29.2735 81.2488 29.6875 81.25H63.2813C63.6893 81.2925 64.0992 81.1899 64.4391 80.9603C64.779 80.7306 65.0272 80.3885 65.14 79.9941C65.2528 79.5997 65.2231 79.1782 65.0561 78.8035C64.889 78.4289 64.5953 78.125 64.2266 77.9453ZM43.75 78.125H31.25V77.6328C32.6406 76.7578 37.9922 74.0078 37.9922 74.0078C38.6064 73.7306 39.2557 73.5388 39.9219 73.4375H43.75V78.125ZM46.875 78.125V73.4375H50.9922C51.0391 73.4453 58.6016 78.125 58.6016 78.125H46.875Z" fill="#2D4356"/>
<path d="M58.6016 78.125H46.875V73.4375H50.9922C51.0391 73.4453 58.6016 78.125 58.6016 78.125ZM43.75 73.4375V78.125H31.25V77.6328C32.6406 76.7578 37.9922 74.0078 37.9922 74.0078C38.6064 73.7306 39.2557 73.5388 39.9219 73.4375H43.75Z" fill="#E1EBF4"/>
<path opacity="0.5" d="M63.2969 89.0625C62.9525 89.8739 62.7186 90.7279 62.6016 91.6016H35.8359C35.7178 90.729 35.4867 89.8755 35.1484 89.0625H63.2969Z" fill="#5F5968"/>
<path d="M92.1405 88.9458L90.9733 80.3825C90.8148 79.2402 90.3275 78.1685 89.5709 77.2982C88.8142 76.4279 87.8207 75.7964 86.7115 75.4806C82.7797 74.6734 74.4629 73.1598 71.8837 73.0171C70.5277 72.8869 69.2094 72.4965 68.0012 71.8673L57.1739 65.5395C55.5204 64.639 53.6809 64.1335 51.7994 64.0625H37.2543C35.3549 64.1388 33.5041 64.6854 31.868 65.6532L23.9956 70.6474C22.8607 71.2981 21.5903 71.6766 20.2843 71.753H14.2238C13.1185 71.8056 12.079 72.2935 11.3322 73.11C10.5854 73.9265 10.192 75.0053 10.2379 76.1109C10.2379 78.1784 10.2093 79.0756 9.49022 80.5198C9.40702 80.687 9.26093 80.9173 9.10029 81.1775C8.34654 82.399 7.81287 83.3359 7.81287 84.2652V89.3905C7.76698 90.4965 8.16056 91.5758 8.90766 92.3925C9.65477 93.2093 10.6947 93.6973 11.8004 93.75H15.6651C15.6452 93.4913 15.6254 93.2327 15.6254 92.9688C15.6283 92.1791 15.7235 91.3925 15.9092 90.625H11.8004C11.3411 90.625 10.9379 90.0482 10.9379 89.3905V84.3308C11.1662 83.8033 11.4412 83.2972 11.7595 82.8186C11.9808 82.46 12.1746 82.1403 12.2883 81.9115C13.3629 79.7523 13.3629 78.2249 13.3629 76.1109C13.3629 75.3845 13.8165 74.878 14.2238 74.878H20.2843C22.1837 74.8016 24.0343 74.2545 25.6698 73.2857L33.5415 68.2923C34.677 67.6418 35.9479 67.2636 37.2543 67.1875H51.7994C53.1262 67.2596 54.4218 67.6177 55.5973 68.2373L66.4249 74.5659C68.0604 75.4479 69.8603 75.983 71.7121 76.1376C73.9353 76.2604 81.7085 77.6436 86.0821 78.5416C86.5546 78.7262 86.9696 79.0329 87.2849 79.4303C87.6002 79.8277 87.8045 80.3016 87.8769 80.8037L89.0446 89.37C89.0802 89.5511 89.0781 89.7376 89.0383 89.9179C88.9985 90.0981 88.922 90.2682 88.8134 90.4175C88.7565 90.485 88.6851 90.5387 88.6045 90.5746C88.5239 90.6106 88.4362 90.6278 88.348 90.625H82.5291C82.7148 91.3925 82.81 92.1791 82.8129 92.9688C82.8129 93.2327 82.793 93.4913 82.7732 93.75H88.348C88.8828 93.754 89.4121 93.6416 89.8992 93.4207C90.3864 93.1997 90.8196 92.8755 91.169 92.4705C91.5729 91.9863 91.8686 91.4212 92.0362 90.8133C92.2038 90.2054 92.2393 89.5686 92.1405 88.9458Z" fill="#2D4356"/>
<path d="M25.7813 85.9375C24.3906 85.9375 23.0312 86.3499 21.8749 87.1225C20.7186 87.8951 19.8174 88.9932 19.2852 90.278C18.753 91.5628 18.6138 92.9766 18.8851 94.3405C19.1564 95.7044 19.8261 96.9573 20.8094 97.9406C21.7927 98.9239 23.0456 99.5936 24.4095 99.8649C25.7735 100.136 27.1872 99.997 28.472 99.4648C29.7568 98.9326 30.8549 98.0314 31.6275 96.8751C32.4001 95.7188 32.8125 94.3594 32.8125 92.9688C32.8097 91.1048 32.068 89.318 30.75 88C29.432 86.682 27.6452 85.9403 25.7813 85.9375ZM25.7813 96.875C25.0087 96.875 24.2534 96.6459 23.6111 96.2167C22.9687 95.7875 22.468 95.1774 22.1723 94.4636C21.8767 93.7498 21.7993 92.9644 21.9501 92.2067C22.1008 91.4489 22.4728 90.7529 23.0191 90.2066C23.5654 89.6603 24.2614 89.2883 25.0192 89.1376C25.7769 88.9868 26.5623 89.0642 27.2761 89.3598C27.9899 89.6555 28.6 90.1562 29.0292 90.7986C29.4584 91.4409 29.6875 92.1962 29.6875 92.9688C29.6871 94.0046 29.2755 94.998 28.543 95.7305C27.8105 96.463 26.8171 96.8746 25.7813 96.875Z" fill="#2D4356"/>
<path d="M25.7812 96.875C27.9386 96.875 29.6875 95.1261 29.6875 92.9688C29.6875 90.8114 27.9386 89.0625 25.7812 89.0625C23.6239 89.0625 21.875 90.8114 21.875 92.9688C21.875 95.1261 23.6239 96.875 25.7812 96.875Z" fill="#D68751"/>
<path d="M72.6563 85.9375C71.2656 85.9375 69.9062 86.3499 68.7499 87.1225C67.5936 87.8951 66.6924 88.9932 66.1602 90.278C65.628 91.5628 65.4888 92.9766 65.7601 94.3405C66.0314 95.7044 66.7011 96.9573 67.6844 97.9406C68.6677 98.9239 69.9206 99.5936 71.2845 99.8649C72.6485 100.136 74.0622 99.997 75.347 99.4648C76.6318 98.9326 77.7299 98.0314 78.5025 96.8751C79.2751 95.7188 79.6875 94.3594 79.6875 92.9688C79.6847 91.1048 78.943 89.318 77.625 88C76.307 86.682 74.5202 85.9403 72.6563 85.9375ZM72.6563 96.875C71.8837 96.875 71.1284 96.6459 70.4861 96.2167C69.8437 95.7875 69.343 95.1774 69.0473 94.4636C68.7517 93.7498 68.6743 92.9644 68.8251 92.2067C68.9758 91.4489 69.3478 90.7529 69.8941 90.2066C70.4404 89.6603 71.1364 89.2883 71.8942 89.1376C72.6519 88.9868 73.4373 89.0642 74.1511 89.3598C74.8649 89.6555 75.475 90.1562 75.9042 90.7986C76.3334 91.4409 76.5625 92.1962 76.5625 92.9688C76.5621 94.0046 76.1505 94.998 75.418 95.7305C74.6855 96.463 73.6921 96.8746 72.6563 96.875Z" fill="#2D4356"/>
<path d="M72.6562 96.875C74.8136 96.875 76.5625 95.1261 76.5625 92.9688C76.5625 90.8114 74.8136 89.0625 72.6562 89.0625C70.4989 89.0625 68.75 90.8114 68.75 92.9688C68.75 95.1261 70.4989 96.875 72.6562 96.875Z" fill="#D68751"/>
<path d="M71.6663 43.7645C71.5316 43.5237 71.3352 43.3231 71.0974 43.1833C70.8596 43.0434 70.5888 42.9694 70.3129 42.9688H29.6879C29.2735 42.9688 28.876 43.1334 28.583 43.4264C28.29 43.7194 28.1254 44.1168 28.1254 44.5312C28.1254 44.9457 28.29 45.3431 28.583 45.6361C28.876 45.9291 29.2735 46.0938 29.6879 46.0938H68.0676C69.1547 45.156 70.3656 44.3723 71.6663 43.7645ZM78.2578 45.4219C75.7855 45.4219 73.3688 46.155 71.3132 47.5285C69.2576 48.902 67.6554 50.8543 66.7093 53.1383C65.7632 55.4224 65.5157 57.9357 65.998 60.3605C66.4803 62.7853 67.6708 65.0126 69.419 66.7607C71.1671 68.5089 73.3944 69.6994 75.8192 70.1817C78.2439 70.664 80.7573 70.4165 83.0413 69.4704C85.3254 68.5243 87.2776 66.9221 88.6512 64.8665C90.0247 62.8109 90.7578 60.3941 90.7578 57.9219C90.7534 54.608 89.435 51.4311 87.0918 49.0879C84.7485 46.7446 81.5717 45.4263 78.2578 45.4219ZM78.2578 67.2969C76.4036 67.2969 74.591 66.747 73.0493 65.7169C71.5076 64.6868 70.306 63.2226 69.5964 61.5095C68.8869 59.7965 68.7012 57.9115 69.0629 56.0929C69.4247 54.2743 70.3176 52.6039 71.6287 51.2927C72.9398 49.9816 74.6103 49.0887 76.4288 48.727C78.2474 48.3653 80.1324 48.5509 81.8455 49.2605C83.5585 49.9701 85.0227 51.1717 86.0528 52.7134C87.083 54.2551 87.6328 56.0677 87.6328 57.9219C87.6295 60.4073 86.6407 62.7899 84.8833 64.5474C83.1258 66.3048 80.7432 67.2936 78.2578 67.2969Z" fill="#2D4356"/>
<path d="M87.6328 57.9219C87.6328 59.7761 87.083 61.5886 86.0528 63.1303C85.0227 64.6721 83.5585 65.8737 81.8455 66.5832C80.1324 67.2928 78.2474 67.4785 76.4288 67.1167C74.6103 66.755 72.9398 65.8621 71.6287 64.551C70.3176 63.2399 69.4247 61.5694 69.063 59.7508C68.7012 57.9323 68.8869 56.0473 69.5964 54.3342C70.306 52.6212 71.5076 51.157 73.0493 50.1268C74.5911 49.0967 76.4036 48.5469 78.2578 48.5469C80.7436 48.5488 83.127 49.5372 84.8848 51.2949C86.6425 53.0526 87.6308 55.4361 87.6328 57.9219Z" fill="#81D9E3"/>
<path d="M75.3078 56.7237C75.174 56.5678 75.0107 56.4398 74.8274 56.347C74.644 56.2542 74.4442 56.1985 74.2393 56.1831C74.0344 56.1676 73.8284 56.1927 73.6332 56.257C73.438 56.3213 73.2575 56.4234 73.1018 56.5575C72.9461 56.6917 72.8185 56.8552 72.7261 57.0388C72.6337 57.2223 72.5784 57.4223 72.5635 57.6273C72.5485 57.8322 72.5741 58.0381 72.6387 58.2331C72.7034 58.4282 72.806 58.6085 72.9405 58.7639L75.4627 61.6912C75.7158 61.9791 76.0649 62.1651 76.445 62.2147C76.8251 62.2643 77.2103 62.174 77.5287 61.9606L83.2805 58.0238C83.4499 57.908 83.5947 57.7599 83.7068 57.588C83.8189 57.4162 83.896 57.2239 83.9338 57.0223C83.9716 56.8206 83.9693 56.6135 83.9271 56.4127C83.8848 56.2119 83.8034 56.0214 83.6876 55.8521C83.5717 55.6828 83.4236 55.5379 83.2518 55.4259C83.0799 55.3138 82.8877 55.2366 82.686 55.1988C82.4843 55.161 82.2772 55.1633 82.0764 55.2056C81.8757 55.2478 81.6852 55.3292 81.5158 55.4451L76.9176 58.5922L75.3078 56.7237ZM47.6566 87.5977C48.071 87.5977 48.4684 87.433 48.7615 87.14C49.0545 86.847 49.2191 86.4496 49.2191 86.0352C49.2191 85.6208 49.0545 85.2233 48.7615 84.9303C48.4684 84.6373 48.071 84.4727 47.6566 84.4727H44.5316C44.1172 84.4727 43.7198 84.6373 43.4268 84.9303C43.1337 85.2233 42.9691 85.6208 42.9691 86.0352C42.9691 86.4496 43.1337 86.847 43.4268 87.14C43.7198 87.433 44.1172 87.5977 44.5316 87.5977H47.6566ZM65.2809 49.2188H29.6879C29.2735 49.2188 28.876 49.3834 28.583 49.6764C28.29 49.9694 28.1254 50.3668 28.1254 50.7812C28.1254 51.1957 28.29 51.5931 28.583 51.8861C28.876 52.1791 29.2735 52.3438 29.6879 52.3438H63.6768C64.0921 51.245 64.6302 50.1967 65.2809 49.2188ZM29.6879 55.4688C29.2735 55.4688 28.876 55.6334 28.583 55.9264C28.29 56.2194 28.1254 56.6168 28.1254 57.0312C28.1254 57.4457 28.29 57.8431 28.583 58.1361C28.876 58.4291 29.2735 58.5938 29.6879 58.5938H62.6712C62.661 58.361 62.6362 58.1322 62.6362 57.8972C62.6421 57.0835 62.7118 56.2716 62.8444 55.4688H29.6879Z" fill="#2D4356"/>
<path d="M23.4375 67.3004V4.6875C23.427 4.28454 23.5767 3.89385 23.8537 3.60099C24.1307 3.30813 24.5124 3.13697 24.9153 3.125H75.0839C75.4869 3.13687 75.8688 3.30797 76.146 3.60083C76.4231 3.89369 76.5729 4.28444 76.5625 4.6875V42.3923C77.1266 42.3295 77.6936 42.2973 78.2612 42.2959C78.7426 42.2959 79.2171 42.3252 79.6875 42.368V4.6875C79.6972 3.45587 79.2179 2.2707 78.3549 1.39195C77.4919 0.5132 76.3155 0.0126167 75.0839 0L24.9153 0C23.6838 0.0127152 22.5077 0.513355 21.6448 1.39211C20.7819 2.27086 20.3028 3.45597 20.3125 4.6875V68.6256C21.0138 68.5442 21.6944 68.3353 22.3206 68.0092L23.4375 67.3004Z" fill="#2D4356"/>
<path d="M64.2586 21.797C63.9326 21.8473 63.6032 21.8728 63.2733 21.8733C62.9639 21.8734 62.6545 21.8502 62.3486 21.8039C60.7633 21.5858 59.2826 20.8881 58.1052 19.8044L57.0301 21.0936L56.2504 27.3436H70.3129V21.0936L68.5306 19.7285C67.3536 20.8415 65.8616 21.5639 64.2586 21.797Z" fill="#FC785E"/>
<path d="M56.9771 18.466C56.3563 18.7664 55.8213 19.2186 55.4217 19.7808C55.022 20.3429 54.7707 20.9967 54.6909 21.6818C54.6891 21.7146 54.6879 25.7822 54.6879 25.7822C54.6879 26.1966 54.8525 26.594 55.1455 26.887C55.4385 27.1801 55.836 27.3447 56.2504 27.3447C56.6648 27.3447 57.0622 27.1801 57.3552 26.887C57.6483 26.594 57.8129 26.1966 57.8129 25.7822V21.8534C57.864 21.5688 59.3723 20.7651 59.3723 20.7651C58.4112 20.1886 57.5924 19.4028 56.9771 18.466ZM70.3129 27.3447C70.7273 27.3447 71.1247 27.18 71.4177 26.887C71.7107 26.594 71.8754 26.1966 71.8754 25.7822C71.8754 25.7822 71.8742 21.7157 71.8723 21.6833C71.793 20.9975 71.5416 20.3428 71.1415 19.7801C70.7414 19.2175 70.2056 18.765 69.5839 18.4648C68.9672 19.4014 68.1471 20.1867 67.1848 20.7624C67.1848 20.7624 67.6361 20.9974 67.7017 21.0218C68.1507 21.1897 68.7023 21.5895 68.7504 21.8527V25.7822C68.7504 26.1966 68.915 26.594 69.208 26.887C69.5011 27.18 69.8985 27.3447 70.3129 27.3447ZM35.6541 90.6259C35.8397 91.3934 35.935 92.18 35.9379 92.9697C35.9379 93.2337 35.918 93.4923 35.8982 93.7509H62.5401C62.5202 93.4923 62.5004 93.2337 62.5004 92.9697C62.5033 92.18 62.5985 91.3934 62.7842 90.6259H35.6541Z" fill="#2D4356"/>
<path opacity="0.5" d="M16.4219 89.0625C16.2092 89.569 16.0368 90.0914 15.9063 90.625H11.7969C11.3438 90.625 10.9375 90.0469 10.9375 89.3906V87.8281C10.9375 88.4844 11.3438 89.0625 11.7969 89.0625H16.4219ZM88.8125 90.4141C88.7569 90.4821 88.6865 90.5366 88.6066 90.5731C88.5266 90.6097 88.4394 90.6274 88.3516 90.625H82.5312C82.3997 90.0926 82.23 89.5705 82.0234 89.0625H88.3516C88.4394 89.0649 88.5266 89.0472 88.6066 89.0106C88.6865 88.9741 88.7569 88.9196 88.8125 88.8516C88.8701 88.7877 88.9152 88.7134 88.9453 88.6328L89.0469 89.3672C89.0815 89.5484 89.0786 89.7349 89.0383 89.9149C88.998 90.095 88.9211 90.2649 88.8125 90.4141Z" fill="#5F5968"/>
<path opacity="0.5" d="M65.1094 12.3281C65.0781 12.5234 65.0547 12.7188 65.0235 12.9141C64.7422 15.2031 64.0547 15.5 63.2813 15.625C62.586 15.5234 61.8281 15.2188 61.5391 12.9141C61.5078 12.7188 61.4844 12.5234 61.4532 12.3359C61.3028 11.7426 61.2894 11.1227 61.4141 10.5234C61.4297 10.6016 61.4375 10.6875 61.4532 10.7734C61.4844 10.9609 61.5078 11.1562 61.5391 11.3516C61.8281 13.6562 62.586 13.9609 63.2813 14.0625C64.0547 13.9375 64.7422 13.6406 65.0235 11.3516C65.0547 11.1562 65.0781 10.9609 65.1094 10.7656C65.125 10.6797 65.1328 10.6016 65.1485 10.5234C65.273 11.1201 65.2597 11.7374 65.1094 12.3281Z" fill="#9FA5AA"/>
<path opacity="0.5" d="M43.75 73.4375V75H39.9219C39.2557 75.1013 38.6064 75.2932 37.9922 75.5703C37.9922 75.5703 35.2109 77 33.1406 78.125H31.25V77.6328C32.6406 76.7578 37.9922 74.0078 37.9922 74.0078C38.6064 73.7307 39.2557 73.5388 39.9219 73.4375H43.75ZM58.6016 78.125H56.0781C53.875 76.7656 51.0234 75.0078 50.9922 75H46.875V73.4375H50.9922C51.0391 73.4453 58.6016 78.125 58.6016 78.125Z" fill="white"/>
<path opacity="0.2" d="M88.9453 90.1953L87.875 82.3672C87.8031 81.8653 87.5998 81.3914 87.2856 80.9935C86.9714 80.5955 86.5575 80.2878 86.0859 80.1016C81.7109 79.2031 73.9375 77.8203 71.7109 77.7031C69.858 77.5469 68.0574 77.0097 66.4219 76.125L55.5938 69.7969C54.418 69.1792 53.123 68.8221 51.7969 68.75H37.2578C35.9499 68.8259 34.6773 69.2029 33.5391 69.8516L25.6719 74.8516C24.0337 75.8177 22.1816 76.3626 20.2812 76.4375H14.2266C13.8203 76.4375 13.3594 76.9453 13.3594 77.6719C13.3594 79.7891 13.3594 81.3125 12.2891 83.4766C12.1719 83.7031 11.9844 84.0234 11.7578 84.3828C11.4392 84.8595 11.1647 85.3642 10.9375 85.8906V84.3281C11.1647 83.8017 11.4392 83.297 11.7578 82.8203C11.9844 82.4609 12.1719 82.1406 12.2891 81.9141C13.3594 79.75 13.3594 78.2266 13.3594 76.1094C13.3594 75.3828 13.8204 74.875 14.2266 74.875H20.2813C22.1816 74.8001 24.0338 74.2552 25.6719 73.2891L33.5391 68.2891C34.6773 67.6404 35.95 67.2634 37.2578 67.1875H51.7969C53.123 67.2596 54.418 67.6167 55.5938 68.2344L66.4219 74.5625C68.0574 75.4472 69.858 75.9844 71.7109 76.1406C73.9375 76.2578 81.7109 77.6406 86.0859 78.5391C86.5575 78.7253 86.9714 79.033 87.2856 79.431C87.5998 79.8289 87.8031 80.3028 87.875 80.8047L89.0469 89.3672C89.0928 89.6473 89.0576 89.9346 88.9453 90.1953Z" fill="#DCCEF2"/>
<path opacity="0.4" d="M29.6875 92.9687C29.6875 94.0048 29.2759 94.9983 28.5434 95.7309C27.8108 96.4635 26.8172 96.875 25.7812 96.875C24.7452 96.875 23.7517 96.4635 23.0191 95.7309C22.2865 94.9983 21.875 94.0048 21.875 92.9687C21.8731 92.7089 21.8993 92.4496 21.9531 92.1953C22.1353 93.0759 22.6155 93.8668 23.3129 94.4346C24.0102 95.0025 24.882 95.3125 25.7812 95.3125C26.6805 95.3125 27.5523 95.0025 28.2496 94.4346C28.9469 93.8668 29.4272 93.0759 29.6093 92.1953C29.6632 92.4496 29.6894 92.7089 29.6875 92.9687ZM76.5625 92.9687C76.5625 94.0048 76.1509 94.9983 75.4184 95.7309C74.6858 96.4635 73.6922 96.875 72.6562 96.875C71.6202 96.875 70.6266 96.4635 69.8941 95.7309C69.1615 94.9983 68.75 94.0048 68.75 92.9687C68.7481 92.7089 68.7743 92.4496 68.8281 92.1953C69.0103 93.0759 69.4905 93.8668 70.1879 94.4346C70.8852 95.0025 71.757 95.3125 72.6562 95.3125C73.5555 95.3125 74.4273 95.0025 75.1246 94.4346C75.8219 93.8668 76.3022 93.0759 76.4843 92.1953C76.5382 92.4496 76.5644 92.7089 76.5625 92.9687Z" fill="#72492D"/>
<path opacity="0.4" d="M87.6328 57.9219C87.6328 58.1875 87.625 58.4453 87.6016 58.7031C87.4053 56.36 86.3359 54.1762 84.6052 52.5844C82.8746 50.9927 80.6091 50.1093 78.2578 50.1093C75.9065 50.1093 73.641 50.9927 71.9104 52.5844C70.1797 54.1762 69.1103 56.36 68.9141 58.7031C68.8906 58.4453 68.8828 58.1875 68.8828 57.9219C68.8828 55.4355 69.8705 53.0509 71.6287 51.2927C73.3868 49.5346 75.7714 48.5469 78.2578 48.5469C80.7442 48.5469 83.1288 49.5346 84.8869 51.2927C86.6451 53.0509 87.6328 55.4355 87.6328 57.9219Z" fill="#E8FBFC"/>
<path opacity="0.3" d="M87.6328 57.9219C87.6328 60.4083 86.6451 62.7928 84.8869 64.551C83.1288 66.3092 80.7442 67.2969 78.2578 67.2969C75.7714 67.2969 73.3868 66.3092 71.6287 64.551C69.8705 62.7928 68.8828 60.4083 68.8828 57.9219C68.8828 57.6562 68.8906 57.3984 68.9141 57.1406C69.1103 59.4837 70.1797 61.6676 71.9104 63.2593C73.641 64.8511 75.9065 65.7345 78.2578 65.7345C80.6091 65.7345 82.8746 64.8511 84.6052 63.2593C86.3359 61.6676 87.4053 59.4837 87.6016 57.1406C87.625 57.3984 87.6328 57.6562 87.6328 57.9219Z" fill="#0F423C"/>
<path opacity="0.5" d="M76.5625 4.6875V6.25C76.5724 5.84739 76.4228 5.45718 76.1462 5.16447C75.8696 4.87176 75.4884 4.70031 75.0859 4.6875H24.914C24.5115 4.70032 24.1304 4.87178 23.8538 5.16448C23.5772 5.45719 23.4275 5.8474 23.4375 6.25V4.6875C23.4275 4.2849 23.5772 3.89469 23.8538 3.60198C24.1304 3.30928 24.5115 3.13782 24.914 3.125H75.0859C75.4884 3.13781 75.8696 3.30926 76.1462 3.60197C76.4228 3.89468 76.5724 4.28489 76.5625 4.6875Z" fill="white"/>
</g>
<defs>
<clipPath id="clip0_89_6972">
<rect width="100" height="100" fill="white"/>
</clipPath>
</defs>
</svg>
