<svg width="19" height="19" viewBox="0 0 19 19" fill="none" xmlns="http://www.w3.org/2000/svg">
<path d="M12.5245 4.3032L13.5758 3.25188C14.1565 2.67125 15.0979 2.67125 15.6785 3.25188C16.2591 3.8325 16.2591 4.77389 15.6785 5.35452L14.6272 6.40584M12.5245 4.3032L8.5991 8.22863C7.81515 9.0126 7.42315 9.40455 7.15623 9.88223C6.8893 10.3599 6.62075 11.4878 6.36395 12.5664C7.44252 12.3096 8.57045 12.041 9.04813 11.7741C9.5258 11.5072 9.91775 11.1152 10.7017 10.3313L14.6272 6.40584M12.5245 4.3032L14.6272 6.40584" stroke="#333333" stroke-width="1.125" stroke-linecap="round" stroke-linejoin="round"/>
<path d="M16.1149 9.56641C16.1149 12.7484 16.1149 14.3394 15.1264 15.3279C14.1379 16.3164 12.5469 16.3164 9.36493 16.3164C6.18295 16.3164 4.59196 16.3164 3.60344 15.3279C2.61493 14.3394 2.61493 12.7484 2.61493 9.56641C2.61493 6.38443 2.61493 4.79344 3.60344 3.80492C4.59196 2.81641 6.18295 2.81641 9.36493 2.81641" stroke="#333333" stroke-width="1.125" stroke-linecap="round"/>
</svg>
