<svg width="16" height="16" viewBox="0 0 16 16" fill="none" xmlns="http://www.w3.org/2000/svg">
<path d="M10.3866 7.99995C10.3866 9.31995 9.31995 10.3866 7.99995 10.3866C6.67995 10.3866 5.61328 9.31995 5.61328 7.99995C5.61328 6.67995 6.67995 5.61328 7.99995 5.61328C9.31995 5.61328 10.3866 6.67995 10.3866 7.99995Z" stroke="#A30133" stroke-linecap="round" stroke-linejoin="round"/>
<path d="M8.00002 13.5136C10.3534 13.5136 12.5467 12.1269 14.0734 9.72689C14.6734 8.78689 14.6734 7.20689 14.0734 6.26689C12.5467 3.86689 10.3534 2.48022 8.00002 2.48022C5.64668 2.48022 3.45335 3.86689 1.92668 6.26689C1.32668 7.20689 1.32668 8.78689 1.92668 9.72689C3.45335 12.1269 5.64668 13.5136 8.00002 13.5136Z" stroke="#A30133" stroke-linecap="round" stroke-linejoin="round"/>
</svg>
