<svg width="25" height="24" viewBox="0 0 25 24" fill="none" xmlns="http://www.w3.org/2000/svg">
<path d="M5.90002 2.09961H19.1C20.2 2.09961 21.1 2.99961 21.1 4.09961V6.29961C21.1 7.09961 20.6 8.09961 20.1 8.59961L15.8 12.3996C15.2 12.8996 14.8 13.8996 14.8 14.6996V18.9996C14.8 19.5996 14.4 20.3996 13.9 20.6996L12.5 21.5996C11.2 22.3996 9.40002 21.4996 9.40002 19.8996V14.5996C9.40002 13.8996 9.00002 12.9996 8.60002 12.4996L4.80002 8.49961C4.30002 7.99961 3.90002 7.09961 3.90002 6.49961V4.19961C3.90002 2.99961 4.80002 2.09961 5.90002 2.09961Z" stroke="white" stroke-width="1.5" stroke-miterlimit="10" stroke-linecap="round" stroke-linejoin="round"/>
<path d="M11.43 2.09961L6.5 9.99961" stroke="white" stroke-width="1.5" stroke-miterlimit="10" stroke-linecap="round" stroke-linejoin="round"/>
</svg>
