<svg width="40" height="40" viewBox="0 0 40 40" fill="none" xmlns="http://www.w3.org/2000/svg">
<path d="M11.6667 31.667H21.6667C26.3807 31.667 28.7377 31.667 30.2022 30.2025C31.6667 28.738 31.6667 26.381 31.6667 21.667V16.667M31.6667 16.667C32.8337 16.667 35.0142 19.9908 35.8334 20.8337M31.6667 16.667C30.4997 16.667 28.3192 19.9908 27.5001 20.8337" stroke="#141B34" stroke-width="2.5" stroke-linecap="round" stroke-linejoin="round"/>
<path d="M8.33325 11.667V28.3337" stroke="#141B34" stroke-width="2.5" stroke-linecap="round" stroke-linejoin="round"/>
<path d="M8.33333 11.6667C10.1743 11.6667 11.6667 10.1743 11.6667 8.33333C11.6667 6.49238 10.1743 5 8.33333 5C6.49238 5 5 6.49238 5 8.33333C5 10.1743 6.49238 11.6667 8.33333 11.6667Z" stroke="#141B34" stroke-width="2.5"/>
<path d="M31.6666 11.6667C33.5075 11.6667 34.9999 10.1743 34.9999 8.33333C34.9999 6.49238 33.5075 5 31.6666 5C29.8256 5 28.3333 6.49238 28.3333 8.33333C28.3333 10.1743 29.8256 11.6667 31.6666 11.6667Z" stroke="#141B34" stroke-width="2.5"/>
<path d="M8.33333 34.9997C10.1743 34.9997 11.6667 33.5073 11.6667 31.6663C11.6667 29.8254 10.1743 28.333 8.33333 28.333C6.49238 28.333 5 29.8254 5 31.6663C5 33.5073 6.49238 34.9997 8.33333 34.9997Z" stroke="#141B34" stroke-width="2.5"/>
</svg>
