<svg width="85" height="99" viewBox="0 0 85 99" fill="none" xmlns="http://www.w3.org/2000/svg">
<path d="M77.8187 85.4158H75.3227V84.215C75.3227 82.5361 74.2523 81.1143 72.7633 80.5627V78.6689L73.4109 75.7955C73.9305 73.4908 74.975 71.1541 76.5156 68.8502C77.5805 67.258 78.143 65.4025 78.143 63.483C78.143 60.7229 76.9617 58.0854 74.9023 56.2463C74.2547 55.6674 73.5305 55.1971 72.7641 54.8166V16.7971C72.7641 14.6432 71.0117 12.8908 68.8578 12.8908H57.8703C57.3898 11.2783 55.9102 10.0908 54.143 10.0908H45.732C44.925 6.59473 41.7687 4.03613 38.1273 4.03613C34.4859 4.03613 31.3297 6.59473 30.5227 10.0908H22.1117C20.3453 10.0908 18.8656 11.2775 18.3844 12.8908H7.39844C5.24453 12.8908 3.49219 14.6432 3.49219 16.7971V94.401C3.49219 96.5549 5.24453 98.3072 7.39844 98.3072H82.1062C82.5383 98.3072 82.8875 97.9572 82.8875 97.526V95.058H84.0695C84.5016 95.058 84.8508 94.708 84.8508 94.2768V92.4471C84.85 88.5705 81.6961 85.4158 77.8187 85.4158Z" fill="#E6E7E8"/>
<path d="M65.732 94.4008H4.27344C2.54766 94.4008 1.14844 93.0016 1.14844 91.2758V13.6719C1.14844 11.9461 2.54766 10.5469 4.27344 10.5469H65.732C67.4578 10.5469 68.857 11.9461 68.857 13.6719V91.2758C68.857 93.0016 67.4578 94.4008 65.732 94.4008Z" fill="#6DC9F7"/>
<path d="M61.8258 88.932H8.17969C7.31641 88.932 6.61719 88.2328 6.61719 87.3695V17.5781C6.61719 16.7148 7.31641 16.0156 8.17969 16.0156H61.8258C62.6883 16.0156 63.3883 16.7148 63.3883 17.5781V87.3695C63.3883 88.2328 62.6883 88.932 61.8258 88.932Z" fill="#D4FBFF"/>
<path d="M41.9584 7.74756C41.4818 4.32803 38.5537 1.69287 35.0029 1.69287C31.4521 1.69287 28.524 4.32803 28.0475 7.74756H18.9873C17.2615 7.74756 15.8623 9.14678 15.8623 10.8726V17.5132C15.8623 18.3765 16.5623 19.0757 17.4248 19.0757H52.5811C53.4443 19.0757 54.1436 18.3765 54.1436 17.5132V10.8726C54.1436 9.14678 52.7443 7.74756 51.0186 7.74756H41.9584Z" fill="#0089EF"/>
<path d="M35.0029 11.0679C36.2973 11.0679 37.3467 10.0185 37.3467 8.72412C37.3467 7.4297 36.2973 6.38037 35.0029 6.38037C33.7085 6.38037 32.6592 7.4297 32.6592 8.72412C32.6592 10.0185 33.7085 11.0679 35.0029 11.0679Z" fill="white"/>
<path d="M74.2369 60.3593C74.2369 55.0906 69.6682 50.889 64.276 51.5007C60.2252 51.9601 56.9534 55.2116 56.4674 59.2593C56.1955 61.5265 56.7784 63.646 57.933 65.346C59.3799 67.4757 60.5065 69.8054 61.0721 72.3163L62.3455 77.9656H68.2909L69.5237 72.4999C70.108 69.9077 71.2643 67.5007 72.7409 65.2921C73.6862 63.8804 74.2369 62.1851 74.2369 60.3593Z" fill="#FA759E"/>
<path d="M62.3467 77.9653H68.292C70.0178 77.9653 71.417 79.3646 71.417 81.0903V83.0724H59.2217V81.0903C59.2217 79.3646 60.6209 77.9653 62.3467 77.9653Z" fill="#FFD7E5"/>
<path d="M49.6943 91.1517H80.9443V89.3228C80.9443 85.8712 78.1459 83.0728 74.6943 83.0728H55.9443C52.4928 83.0728 49.6943 85.8712 49.6943 89.3228V91.1517Z" fill="#FA759E"/>
<path d="M51.6562 91.1514H78.9813V94.4006H51.6562V91.1514Z" fill="#FFD7E5"/>
<path d="M35.0029 82.6006C41.0435 82.6006 45.9404 77.7037 45.9404 71.6631C45.9404 65.6225 41.0435 60.7256 35.0029 60.7256C28.9623 60.7256 24.0654 65.6225 24.0654 71.6631C24.0654 77.7037 28.9623 82.6006 35.0029 82.6006Z" fill="#0089EF"/>
<path d="M35.0029 63.0693C40.6475 63.0693 45.2904 67.3459 45.8756 72.835C45.917 72.4498 45.9404 72.0592 45.9404 71.6631C45.9404 65.6225 41.0436 60.7256 35.0029 60.7256C28.9623 60.7256 24.0654 65.6225 24.0654 71.6631C24.0654 72.0592 24.0889 72.4498 24.1303 72.835C24.7154 67.3459 29.3584 63.0693 35.0029 63.0693Z" fill="white"/>
<path d="M33.4406 77.2538C33.1313 77.2538 32.8328 77.1311 32.6117 76.9108L28.2867 72.5858C27.8289 72.1288 27.8289 71.3866 28.2867 70.9288C28.7438 70.471 29.4859 70.471 29.9438 70.9288L33.3094 74.2936L39.0234 66.6006C39.4094 66.0803 40.1438 65.9733 40.6633 66.3585C41.1828 66.7444 41.2914 67.4788 40.9055 67.9983L34.382 76.7803C34.1789 77.0538 33.8672 77.2249 33.5273 77.2506C33.4977 77.253 33.4695 77.2538 33.4406 77.2538Z" fill="white"/>
<path d="M68.8574 25.6187C68.4254 25.6187 68.0762 25.9687 68.0762 26.3999V32.5522C68.0762 32.9835 68.4254 33.3335 68.8574 33.3335C69.2895 33.3335 69.6387 32.9835 69.6387 32.5522V26.3999C69.6387 25.9679 69.2887 25.6187 68.8574 25.6187Z" fill="#3A2C60"/>
<path d="M35.002 11.8491C36.7254 11.8491 38.127 10.4476 38.127 8.72412C38.127 7.00068 36.7254 5.59912 35.002 5.59912C33.2785 5.59912 31.877 7.00068 31.877 8.72412C31.877 10.4476 33.2793 11.8491 35.002 11.8491ZM35.002 7.16162C35.8637 7.16162 36.5645 7.8624 36.5645 8.72412C36.5645 9.58584 35.8637 10.2866 35.002 10.2866C34.1402 10.2866 33.4395 9.58584 33.4395 8.72412C33.4395 7.8624 34.1402 7.16162 35.002 7.16162Z" fill="#3A2C60"/>
<path d="M12.7363 30.5496V36.2137C12.7363 37.5059 13.7879 38.5574 15.0801 38.5574H20.7441C22.0363 38.5574 23.0879 37.5059 23.0879 36.2137V30.9129L24.702 29.1777C24.9957 28.8613 24.9777 28.3676 24.6621 28.0731C24.3465 27.7801 23.8527 27.7973 23.5574 28.1129L22.6035 29.1387C22.1754 28.5754 21.5051 28.2059 20.7441 28.2059H15.0801C13.7879 28.2059 12.7363 29.2574 12.7363 30.5496ZM21.484 30.3434L18.084 33.9996L16.2457 31.9637C15.9574 31.6434 15.4637 31.6176 15.1426 31.9074C14.8223 32.1965 14.7973 32.6902 15.0863 33.0106L17.4949 35.6801C17.6418 35.8426 17.8496 35.9363 18.0691 35.9379H18.0746C18.2918 35.9379 18.4988 35.8473 18.6465 35.6887L21.5246 32.5942V36.2145C21.5246 36.6449 21.1738 36.9957 20.7434 36.9957H15.0793C14.6488 36.9957 14.298 36.6449 14.298 36.2145V30.5504C14.298 30.1199 14.6488 29.7692 15.0793 29.7692H20.7434C21.102 29.7684 21.391 30.0145 21.484 30.3434Z" fill="#3A2C60"/>
<path d="M28.3613 31.0381H56.4863C56.9184 31.0381 57.2676 30.6881 57.2676 30.2568C57.2676 29.8256 56.9184 29.4756 56.4863 29.4756H28.3613C27.9301 29.4756 27.5801 29.8256 27.5801 30.2568C27.5801 30.6881 27.9301 31.0381 28.3613 31.0381Z" fill="#3A2C60"/>
<path d="M28.3613 37.2881H56.4863C56.9184 37.2881 57.2676 36.9381 57.2676 36.5068C57.2676 36.0756 56.9184 35.7256 56.4863 35.7256H28.3613C27.9301 35.7256 27.5801 36.0756 27.5801 36.5068C27.5801 36.9381 27.9301 37.2881 28.3613 37.2881Z" fill="#3A2C60"/>
<path d="M28.3613 48.2256H56.4863C56.9184 48.2256 57.2676 47.8756 57.2676 47.4443C57.2676 47.0131 56.9184 46.6631 56.4863 46.6631H28.3613C27.9301 46.6631 27.5801 47.0131 27.5801 47.4443C27.5801 47.8756 27.9301 48.2256 28.3613 48.2256Z" fill="#3A2C60"/>
<path d="M28.3613 54.4756H54.1426C54.5746 54.4756 54.9238 54.1256 54.9238 53.6943C54.9238 53.2631 54.5746 52.9131 54.1426 52.9131H28.3613C27.9301 52.9131 27.5801 53.2631 27.5801 53.6943C27.5801 54.1256 27.9301 54.4756 28.3613 54.4756Z" fill="#3A2C60"/>
<path d="M24.702 46.3652C24.9957 46.0496 24.9777 45.5551 24.6621 45.2606C24.3465 44.9676 23.8527 44.9848 23.5574 45.3004L22.6035 46.3262C22.1754 45.7629 21.5051 45.3934 20.7441 45.3934H15.0801C13.7879 45.3934 12.7363 46.4449 12.7363 47.7371V53.4012C12.7363 54.6934 13.7879 55.7449 15.0801 55.7449H20.7441C22.0363 55.7449 23.0879 54.6934 23.0879 53.4012V48.1004L24.702 46.3652ZM21.5254 53.4012C21.5254 53.8317 21.1746 54.1824 20.7441 54.1824H15.0801C14.6496 54.1824 14.2988 53.8317 14.2988 53.4012V47.7371C14.2988 47.3067 14.6496 46.9559 15.0801 46.9559H20.7441C21.102 46.9559 21.391 47.202 21.4832 47.5309L18.0832 51.1863L16.2449 49.1504C15.9566 48.8309 15.4621 48.8051 15.1418 49.0942C14.8215 49.3832 14.7965 49.877 15.0855 50.1973L17.4941 52.8668C17.641 53.0293 17.8488 53.1231 18.0684 53.1246H18.0738C18.291 53.1246 18.498 53.034 18.6457 52.8754L21.5238 49.7809V53.4012H21.5254Z" fill="#3A2C60"/>
<path d="M74.693 82.2913H72.1977V81.0905C72.1977 79.2655 70.9336 77.7405 69.2391 77.314L70.2859 72.671C70.8055 70.3663 71.85 68.0296 73.3906 65.7257C74.4555 64.1335 75.018 62.278 75.018 60.3585C75.018 57.5983 73.8367 54.9608 71.7773 53.1218C71.1297 52.5437 70.4055 52.0726 69.6391 51.6921V36.0671C69.6391 35.6358 69.2898 35.2858 68.8578 35.2858C68.4258 35.2858 68.0766 35.6358 68.0766 36.0671V51.0718C66.8297 50.7022 65.5078 50.5733 64.1883 50.7241C64.182 50.7249 64.1758 50.7265 64.1703 50.7272V17.578C64.1703 16.2858 63.1187 15.2343 61.8266 15.2343H54.925V11.328H65.7328C67.025 11.328 68.0766 12.3796 68.0766 13.6718V22.7866C68.0766 23.2179 68.4258 23.5679 68.8578 23.5679C69.2898 23.5679 69.6391 23.2179 69.6391 22.7866V13.6718C69.6391 11.5179 67.8867 9.76553 65.7328 9.76553H54.7445C54.2641 8.15303 52.7844 6.96631 51.0172 6.96631H42.6078C41.8008 3.47021 38.6445 0.911621 35.0031 0.911621C31.3617 0.911621 28.2047 3.47021 27.3984 6.96631H18.9867C17.2195 6.96631 15.7406 8.15303 15.2594 9.76553H4.27344C2.11953 9.76553 0.367188 11.5179 0.367188 13.6718V91.2757C0.367188 93.4296 2.11953 95.1819 4.27344 95.1819H78.9812C79.4133 95.1819 79.7625 94.8319 79.7625 94.4007V91.9327H80.9437C81.3758 91.9327 81.725 91.5827 81.725 91.1515V89.3218C81.7242 85.4452 78.5703 82.2913 74.693 82.2913ZM70.6352 81.0905V82.2913H60.0023V81.0905C60.0023 79.7983 61.0539 78.7468 62.3461 78.7468H68.2914C69.5836 78.7468 70.6352 79.7983 70.6352 81.0905ZM64.3633 52.2772C66.7234 52.0069 68.9836 52.7241 70.7352 54.2882C72.4641 55.8319 73.4547 58.0444 73.4547 60.3593C73.4547 61.9687 72.9828 63.5233 72.0914 64.8577C70.4437 67.321 69.3234 69.8343 68.7609 72.328L67.6664 77.1843H62.9703L61.8344 72.1452C61.2867 69.7163 60.1914 67.2812 58.5789 64.9069C57.4648 63.2671 57.0031 61.3468 57.243 59.3522C57.6844 55.671 60.6789 52.6952 64.3633 52.2772ZM16.643 10.8726C16.643 9.58037 17.6945 8.52881 18.9867 8.52881H28.0469C28.4367 8.52881 28.7664 8.24131 28.8203 7.85537C29.2477 4.7874 31.9055 2.47412 35.0023 2.47412C38.0992 2.47412 40.757 4.7874 41.1844 7.85537C41.2383 8.24131 41.568 8.52881 41.9578 8.52881H51.0172C52.3094 8.52881 53.3609 9.58037 53.3609 10.8726V17.5132C53.3609 17.9437 53.0109 18.2944 52.5797 18.2944H17.4234C16.993 18.2944 16.6422 17.9437 16.6422 17.5132L16.643 10.8726ZM17.4242 19.8569H52.5805C53.8727 19.8569 54.9242 18.8054 54.9242 17.5132V16.7968H61.8258C62.257 16.7968 62.607 17.1476 62.607 17.578V51.0437C58.9586 52.1101 56.1531 55.314 55.6914 59.1655C55.4109 61.5054 55.9766 63.8562 57.2867 65.7843C58.7891 67.9952 59.8062 70.2507 60.3102 72.4874L61.3977 77.3132C59.7031 77.7397 58.4391 79.2647 58.4391 81.0897V82.2905H55.943C52.4656 82.2905 49.5781 84.8304 49.0172 88.1499H8.17969C7.74922 88.1499 7.39844 87.7991 7.39844 87.3687V17.578C7.39844 17.1476 7.74922 16.7968 8.17969 16.7968H15.0805V17.5132C15.0805 18.8054 16.132 19.8569 17.4242 19.8569ZM1.92969 91.2757V13.6718C1.92969 12.3796 2.98125 11.328 4.27344 11.328H15.0805V15.2343H8.17969C6.8875 15.2343 5.83594 16.2858 5.83594 17.578V87.3694C5.83594 88.6616 6.8875 89.7132 8.17969 89.7132H48.9125V91.1515C48.9125 91.5827 49.2617 91.9327 49.6937 91.9327H50.8758V93.6194H4.27422C2.98047 93.6194 1.92969 92.5679 1.92969 91.2757ZM78.2 93.6194H52.4375V91.9327H78.2V93.6194ZM80.1617 90.3702H50.4742V89.3218C50.4742 86.3062 52.9281 83.853 55.943 83.853H74.693C77.7078 83.853 80.1617 86.3062 80.1617 89.3218V90.3702Z" fill="#3A2C60"/>
<path d="M35.002 83.3818C41.4637 83.3818 46.7207 78.1248 46.7207 71.6631C46.7207 65.2014 41.4637 59.9443 35.002 59.9443C28.5402 59.9443 23.2832 65.2014 23.2832 71.6631C23.2832 78.1248 28.5402 83.3818 35.002 83.3818ZM35.002 61.5068C40.602 61.5068 45.1582 66.0631 45.1582 71.6631C45.1582 77.2631 40.602 81.8193 35.002 81.8193C29.402 81.8193 24.8457 77.2631 24.8457 71.6631C24.8457 66.0631 29.402 61.5068 35.002 61.5068Z" fill="#3A2C60"/>
</svg>
