<svg width="22" height="22" viewBox="0 0 22 22" fill="none" xmlns="http://www.w3.org/2000/svg">
<path d="M15.5834 19.25H6.41671C2.75004 19.25 1.83337 18.3333 1.83337 14.6667V7.33333C1.83337 3.66667 2.75004 2.75 6.41671 2.75H15.5834C19.25 2.75 20.1667 3.66667 20.1667 7.33333V14.6667C20.1667 18.3333 19.25 19.25 15.5834 19.25Z" stroke="white" stroke-width="1.5" stroke-linecap="round" stroke-linejoin="round"/>
<path d="M12.8334 7.33337H17.4167" stroke="white" stroke-width="1.5" stroke-linecap="round" stroke-linejoin="round"/>
<path d="M13.75 11H17.4167" stroke="white" stroke-width="1.5" stroke-linecap="round" stroke-linejoin="round"/>
<path d="M15.5834 14.6666H17.4167" stroke="white" stroke-width="1.5" stroke-linecap="round" stroke-linejoin="round"/>
<path d="M7.79161 10.3492C8.70794 10.3492 9.45078 9.60638 9.45078 8.69005C9.45078 7.77372 8.70794 7.03088 7.79161 7.03088C6.87528 7.03088 6.13245 7.77372 6.13245 8.69005C6.13245 9.60638 6.87528 10.3492 7.79161 10.3492Z" stroke="white" stroke-width="1.5" stroke-linecap="round" stroke-linejoin="round"/>
<path d="M11 14.9691C10.8717 13.6399 9.81754 12.5949 8.48837 12.4758C8.03004 12.4299 7.56254 12.4299 7.09504 12.4758C5.76587 12.6041 4.71171 13.6399 4.58337 14.9691" stroke="white" stroke-width="1.5" stroke-linecap="round" stroke-linejoin="round"/>
</svg>
