<svg width="22" height="22" viewBox="0 0 22 22" fill="none" xmlns="http://www.w3.org/2000/svg">
<path d="M2.90576 6.82007L10.9999 11.5042L19.0391 6.84754" stroke="white" stroke-width="1.5" stroke-linecap="round" stroke-linejoin="round"/>
<path d="M10.9999 19.8092V11.495" stroke="white" stroke-width="1.5" stroke-linecap="round" stroke-linejoin="round"/>
<path d="M9.10244 2.27337L4.20745 4.9959C3.09828 5.61007 2.1908 7.15005 2.1908 8.41505V13.5942C2.1908 14.8592 3.09828 16.3992 4.20745 17.0134L9.10244 19.7359C10.1474 20.3134 11.8616 20.3134 12.9066 19.7359L17.8016 17.0134C18.9108 16.3992 19.8183 14.8592 19.8183 13.5942V8.41505C19.8183 7.15005 18.9108 5.61007 17.8016 4.9959L12.9066 2.27337C11.8524 1.68671 10.1474 1.68671 9.10244 2.27337Z" stroke="white" stroke-width="1.5" stroke-linecap="round" stroke-linejoin="round"/>
<path d="M15.5833 12.1366V8.78167L6.88416 3.7583" stroke="white" stroke-width="1.5" stroke-linecap="round" stroke-linejoin="round"/>
</svg>
