<svg width="16" height="17" viewBox="0 0 16 17" fill="none" xmlns="http://www.w3.org/2000/svg">
<path d="M10.8721 3.42261C10.4781 3.42261 10.2811 3.42261 10.1016 3.35601C10.0767 3.34676 10.0521 3.33659 10.0279 3.3255C9.85392 3.24568 9.71465 3.10637 9.43599 2.82776C8.79472 2.18649 8.47412 1.86586 8.07958 1.83629C8.02658 1.83232 7.97325 1.83232 7.92025 1.83629C7.52572 1.86586 7.20505 2.18649 6.56382 2.82775C6.2852 3.10637 6.1459 3.24568 5.9719 3.3255C5.94773 3.33659 5.92316 3.34676 5.89823 3.35601C5.71875 3.42261 5.52174 3.42261 5.12773 3.42261H5.05504C4.04977 3.42261 3.54714 3.42261 3.23485 3.73491C2.92255 4.0472 2.92255 4.54983 2.92255 5.55511V5.62779C2.92255 6.0218 2.92255 6.21881 2.85595 6.39829C2.8467 6.42322 2.83653 6.44779 2.82544 6.47196C2.74562 6.64596 2.60631 6.78527 2.32769 7.06388C1.68643 7.70511 1.3658 8.02578 1.33623 8.42031C1.33226 8.47331 1.33226 8.52665 1.33623 8.57965C1.3658 8.97418 1.68643 9.29478 2.32769 9.93605C2.60631 10.2147 2.74562 10.354 2.82544 10.528C2.83653 10.5522 2.8467 10.5767 2.85595 10.6016C2.92255 10.7811 2.92255 10.9782 2.92255 11.3722V11.4448C2.92255 12.4501 2.92255 12.9528 3.23485 13.265C3.54714 13.5774 4.04977 13.5774 5.05504 13.5774H5.12773C5.52174 13.5774 5.71875 13.5774 5.89823 13.644C5.92316 13.6532 5.94773 13.6634 5.9719 13.6744C6.1459 13.7543 6.2852 13.8936 6.56382 14.1722C7.20505 14.8134 7.52572 15.1341 7.92025 15.1636C7.97325 15.1676 8.02652 15.1676 8.07958 15.1636C8.47412 15.1341 8.79472 14.8134 9.43599 14.1722C9.71465 13.8936 9.85392 13.7543 10.0279 13.6744C10.0521 13.6634 10.0767 13.6532 10.1016 13.644C10.2811 13.5774 10.4781 13.5774 10.8721 13.5774H10.9448C11.9501 13.5774 12.4527 13.5774 12.765 13.265C13.0773 12.9528 13.0773 12.4501 13.0773 11.4448V11.3722C13.0773 10.9782 13.0773 10.7811 13.1439 10.6016C13.1531 10.5767 13.1633 10.5522 13.1744 10.528C13.2543 10.354 13.3935 10.2147 13.6721 9.93605C14.3134 9.29478 14.6341 8.97418 14.6636 8.57965C14.6676 8.52658 14.6676 8.47331 14.6636 8.42031C14.6341 8.02578 14.3134 7.70511 13.6721 7.06388C13.3935 6.78527 13.2543 6.64596 13.1744 6.47196C13.1633 6.44779 13.1531 6.42322 13.1439 6.39829C13.0773 6.21881 13.0773 6.0218 13.0773 5.62779V5.55511C13.0773 4.54983 13.0773 4.0472 12.765 3.73491C12.4527 3.42261 11.9501 3.42261 10.9448 3.42261H10.8721Z" stroke="#272727"/>
<path d="M10.3334 8.50002C10.3334 9.78869 9.28875 10.8334 8.00008 10.8334C6.71141 10.8334 5.66675 9.78869 5.66675 8.50002C5.66675 7.21135 6.71141 6.16669 8.00008 6.16669C9.28875 6.16669 10.3334 7.21135 10.3334 8.50002Z" stroke="#272727"/>
</svg>
