<svg width="75" height="75" viewBox="0 0 75 75" fill="none" xmlns="http://www.w3.org/2000/svg">
<path fill-rule="evenodd" clip-rule="evenodd" d="M43.1781 5.75173C43.1547 5.75016 27.1438 5.7501 18.6844 5.7501C16.9125 5.7501 15.2109 6.45331 13.9578 7.708C12.7047 8.96112 12 10.6611 12 12.4345C12 23.6626 12 50.3361 12 61.5642C12 63.3376 12.7047 65.0376 13.9578 66.2923C15.2109 67.5454 16.9125 68.2501 18.6844 68.2501C27.6984 68.2501 46.2922 68.2501 55.3094 68.2501C57.0844 68.2501 58.7859 67.5438 60.0391 66.2892C61.2938 65.0345 61.9969 63.3314 61.9953 61.558L61.9562 24.8657C62.0828 24.3423 61.9313 23.783 61.5422 23.3955L44.3547 6.20796C44.0391 5.89078 43.6094 5.73141 43.1781 5.75173ZM41.6875 8.87511H18.6844C17.7406 8.87511 16.8359 9.25019 16.1672 9.91738C15.5 10.5846 15.125 11.4908 15.125 12.4345V61.5642C15.125 62.5095 15.5 63.4142 16.1672 64.0814C16.8359 64.7502 17.7406 65.1251 18.6844 65.1251H55.3094C56.2547 65.1251 57.1609 64.7486 57.8281 64.0814C58.4953 63.4127 58.8703 62.5063 58.8703 61.561L58.8328 26.0626H43.25C42.3875 26.0626 41.6875 25.3626 41.6875 24.5001V8.87511ZM49.0422 47.8267C46.7078 45.4908 42.9172 45.4923 40.5828 47.8267C38.2484 50.1611 38.2484 53.9517 40.5828 56.2861C42.9172 58.6204 46.7078 58.6204 49.0422 56.2861C51.3766 53.9517 51.3766 50.1611 49.0422 47.8267ZM47.6141 31.4204L24.1766 54.8579C23.5672 55.4673 23.5672 56.4579 24.1766 57.0673C24.7859 57.6767 25.7766 57.6767 26.3859 57.0673L49.8234 33.6298C50.4328 33.0204 50.4328 32.0298 49.8234 31.4204C49.2141 30.8095 48.2234 30.8095 47.6141 31.4204ZM46.8328 50.0361C47.9469 51.1501 47.9469 52.9611 46.8328 54.0767C45.7172 55.1908 43.9078 55.1908 42.7922 54.0767C41.6781 52.9611 41.6781 51.1501 42.7922 50.0361C43.9078 48.9204 45.7172 48.9204 46.8328 50.0361ZM33.4172 32.2017C31.0828 29.8658 27.2922 29.8673 24.9578 32.2017C22.6234 34.5361 22.6234 38.3267 24.9578 40.6611C27.2922 42.9954 31.0828 42.9954 33.4172 40.6611C35.7516 38.3267 35.7516 34.5361 33.4172 32.2017ZM31.2078 34.4111C32.3219 35.5251 32.3219 37.3361 31.2078 38.4517C30.0922 39.5658 28.2828 39.5658 27.1672 38.4517C26.0531 37.3361 26.0531 35.5251 27.1672 34.4111C28.2828 33.2954 30.0922 33.2954 31.2078 34.4111ZM44.8125 11.0845L56.6656 22.9376H44.8125V11.0845Z" fill="#A30133"/>
</svg>
