<svg width="24" height="24" viewBox="0 0 24 24" fill="none" xmlns="http://www.w3.org/2000/svg">
<path fill-rule="evenodd" clip-rule="evenodd" d="M12.001 9.86207C13.1054 9.86207 14.001 10.7885 14.001 11.931C14.001 13.0736 13.1054 14 12.001 14C10.8965 14 10.001 13.0736 10.001 11.931C10.001 10.7885 10.8965 9.86207 12.001 9.86207Z" fill="#CCCCCC"/>
<path fill-rule="evenodd" clip-rule="evenodd" d="M4 9.86207C5.10446 9.86207 6 10.7885 6 11.931C6 13.0736 5.10446 14 4 14C2.89554 14 2 13.0736 2 11.931C2 10.7885 2.89554 9.86207 4 9.86207Z" fill="#CCCCCC"/>
<path fill-rule="evenodd" clip-rule="evenodd" d="M20 9.86207C21.1045 9.86207 22 10.7885 22 11.931C22 13.0736 21.1045 14 20 14C18.8955 14 18 13.0736 18 11.931C18 10.7885 18.8955 9.86207 20 9.86207Z" fill="#CCCCCC"/>
</svg>
