<svg width="46" height="46" viewBox="0 0 46 46" fill="none" xmlns="http://www.w3.org/2000/svg">
<rect width="46" height="46" rx="23" fill="#E89271"/>
<path fill-rule="evenodd" clip-rule="evenodd" d="M14.176 18.2491C14.9876 17.2842 16.3791 16.8125 18.4169 16.8125H27.5835C29.6213 16.8125 31.0128 17.2842 31.8245 18.2491C32.6282 19.2047 32.7047 20.4601 32.5758 21.6306L31.888 28.9674C31.7871 29.9098 31.5505 30.943 30.709 31.7117C29.8738 32.4748 28.5798 32.8542 26.6669 32.8542H19.3335C17.4206 32.8542 16.1266 32.4748 15.2914 31.7117C14.45 30.943 14.2134 29.9098 14.1125 28.9674L14.1115 28.9583L13.4246 21.6306C13.2958 20.4601 13.3722 19.2047 14.176 18.2491ZM15.2282 19.1342C14.7958 19.6483 14.6741 20.4208 14.7919 21.4852L14.7931 21.4967L15.4801 28.8254C15.5718 29.6773 15.7617 30.279 16.2188 30.6966C16.683 31.1206 17.5615 31.4792 19.3335 31.4792H26.6669C28.4389 31.4792 29.3174 31.1206 29.7816 30.6966C30.2387 30.279 30.4286 29.6773 30.5203 28.8254L31.2085 21.4852C31.3262 20.4208 31.2046 19.6483 30.7722 19.1342C30.3463 18.6279 29.4599 18.1875 27.5835 18.1875H18.4169C16.5405 18.1875 15.6541 18.6279 15.2282 19.1342Z" fill="white"/>
<path fill-rule="evenodd" clip-rule="evenodd" d="M20.061 15.7125C20.0221 16.0108 20.021 16.3498 20.021 16.7663V17.4997C20.021 17.8794 19.7132 18.1872 19.3335 18.1872C18.9538 18.1872 18.646 17.8794 18.646 17.4997L18.646 16.7425C18.646 16.3543 18.646 15.9302 18.6976 15.5345C18.7511 15.1245 18.8659 14.6892 19.1346 14.3003C19.6999 13.4824 20.7355 13.1455 22.2668 13.1455H23.7335C25.2648 13.1455 26.3004 13.4824 26.8657 14.3003C27.1345 14.6892 27.2492 15.1245 27.3027 15.5345C27.3544 15.9302 27.3544 16.3543 27.3543 16.7425L27.3543 17.4997C27.3543 17.8794 27.0465 18.1872 26.6668 18.1872C26.2871 18.1872 25.9793 17.8794 25.9793 17.4997V16.7663C25.9793 16.3498 25.9782 16.0108 25.9393 15.7125C25.9011 15.4204 25.8325 15.2238 25.7346 15.0821C25.5666 14.8391 25.1355 14.5205 23.7335 14.5205H22.2668C20.8648 14.5205 20.4337 14.8391 20.2657 15.0821C20.1678 15.2238 20.0992 15.4204 20.061 15.7125Z" fill="white"/>
<path fill-rule="evenodd" clip-rule="evenodd" d="M21.8552 23.6882C21.8545 23.7537 21.8545 23.8283 21.8545 23.9167V24.8608C21.8545 25.1189 21.8568 25.3087 21.8792 25.4698C21.9007 25.6246 21.9349 25.7 21.9639 25.7409C21.9963 25.7865 22.1575 25.9792 23.0003 25.9792C23.847 25.9792 24.0063 25.7847 24.0379 25.7395C24.0671 25.6978 24.1012 25.6213 24.1224 25.4646C24.1445 25.3017 24.1462 25.111 24.1462 24.8517V23.9167C24.1462 23.8283 24.1462 23.7537 24.1454 23.6882C24.08 23.6875 24.0054 23.6875 23.917 23.6875H22.0837C21.9953 23.6875 21.9207 23.6875 21.8552 23.6882ZM22.0536 22.3125C22.0636 22.3125 22.0736 22.3125 22.0837 22.3125H23.917C23.927 22.3125 23.9371 22.3125 23.9471 22.3125C24.1498 22.3125 24.3552 22.3124 24.5229 22.331C24.6937 22.35 24.9775 22.4008 25.2052 22.6285C25.4329 22.8561 25.4837 23.1399 25.5026 23.3108C25.5213 23.4784 25.5212 23.6839 25.5212 23.8866C25.5212 23.8966 25.5212 23.9066 25.5212 23.9167V24.862C25.5212 25.1 25.5212 25.3817 25.485 25.649C25.4475 25.9263 25.3653 26.241 25.1642 26.5283C24.7352 27.1407 23.9779 27.3542 23.0003 27.3542C22.0281 27.3542 21.2727 27.1435 20.8421 26.536C20.6397 26.2504 20.5559 25.9367 20.5173 25.6593C20.4795 25.3881 20.4795 25.1024 20.4795 24.8608V23.9167C20.4795 23.9066 20.4795 23.8966 20.4795 23.8866C20.4795 23.6839 20.4794 23.4784 20.498 23.3108C20.517 23.1399 20.5678 22.8561 20.7954 22.6285C21.0231 22.4008 21.3069 22.35 21.4778 22.331C21.6454 22.3124 21.8508 22.3125 22.0536 22.3125Z" fill="white"/>
<path fill-rule="evenodd" clip-rule="evenodd" d="M32.4021 21.6787C32.6254 21.9858 32.5575 22.4157 32.2504 22.6391C30.0356 24.2498 27.5052 25.2079 24.9195 25.5335C24.5427 25.5809 24.1989 25.314 24.1515 24.9373C24.104 24.5606 24.371 24.2167 24.7477 24.1693C27.1119 23.8716 29.4215 22.9963 31.4417 21.5271C31.7488 21.3037 32.1787 21.3716 32.4021 21.6787Z" fill="white"/>
<path fill-rule="evenodd" clip-rule="evenodd" d="M13.8346 21.9418C14.049 21.6285 14.4769 21.5483 14.7902 21.7628C16.7601 23.111 18.9814 23.9236 21.2434 24.1769C21.6208 24.2192 21.8924 24.5593 21.8502 24.9366C21.8079 25.314 21.4678 25.5856 21.0904 25.5434C18.6042 25.265 16.1688 24.3726 14.0136 22.8975C13.7003 22.683 13.6201 22.2552 13.8346 21.9418Z" fill="white"/>
</svg>
