<svg width="46" height="46" viewBox="0 0 46 46" fill="none" xmlns="http://www.w3.org/2000/svg">
<rect width="46" height="46" rx="23" fill="#70A1E6"/>
<path fill-rule="evenodd" clip-rule="evenodd" d="M23.0002 14.5205C18.3199 14.5205 14.521 18.3194 14.521 22.9997C14.521 27.68 18.3199 31.4788 23.0002 31.4788C27.6805 31.4788 31.4793 27.68 31.4793 22.9997C31.4793 18.3194 27.6805 14.5205 23.0002 14.5205ZM13.146 22.9997C13.146 17.56 17.5605 13.1455 23.0002 13.1455C28.4399 13.1455 32.8543 17.56 32.8543 22.9997C32.8543 28.4394 28.4399 32.8538 23.0002 32.8538C17.5605 32.8538 13.146 28.4394 13.146 22.9997Z" fill="#F1F1F1"/>
<path fill-rule="evenodd" clip-rule="evenodd" d="M22.6611 18.1963C23.0408 18.1963 23.3486 18.5041 23.3486 18.8838V22.6421C23.3486 22.7829 23.4024 22.9869 23.5219 23.1964C23.6414 23.406 23.7896 23.556 23.91 23.6273L23.9118 23.6284L23.9118 23.6284L26.7534 25.3243C27.0795 25.5188 27.1861 25.9409 26.9915 26.2669C26.7969 26.593 26.3749 26.6996 26.0488 26.505L23.209 24.8102C23.2087 24.8101 23.2083 24.8099 23.208 24.8097C22.8339 24.5877 22.5332 24.2383 22.3275 23.8776C22.1216 23.5165 21.9736 23.0789 21.9736 22.6421V18.8838C21.9736 18.5041 22.2814 18.1963 22.6611 18.1963Z" fill="#F1F1F1"/>
</svg>
