<svg width="22" height="22" viewBox="0 0 22 22" fill="none" xmlns="http://www.w3.org/2000/svg">
<path d="M14.2175 2.59412H7.78246C5.49996 2.59412 4.99579 3.73078 4.70246 5.12412L3.66663 10.0833H18.3333L17.2975 5.12412C17.0041 3.73078 16.5 2.59412 14.2175 2.59412Z" stroke="white" stroke-width="1.5" stroke-linecap="round" stroke-linejoin="round"/>
<path d="M20.1575 18.1684C20.2583 19.2409 19.3967 20.1667 18.2967 20.1667H16.5733C15.5833 20.1667 15.4458 19.745 15.2717 19.2225L15.0883 18.6725C14.8317 17.9209 14.6667 17.4167 13.3467 17.4167H8.65334C7.33334 17.4167 7.14084 17.985 6.91167 18.6725L6.72834 19.2225C6.55417 19.745 6.41667 20.1667 5.42667 20.1667H3.70334C2.60334 20.1667 1.74167 19.2409 1.8425 18.1684L2.35584 12.5859C2.48417 11.2109 2.75 10.0834 5.15167 10.0834H16.8483C19.25 10.0834 19.5158 11.2109 19.6442 12.5859L20.1575 18.1684Z" stroke="white" stroke-width="1.5" stroke-linecap="round" stroke-linejoin="round"/>
<path d="M3.66667 7.33337H2.75" stroke="white" stroke-width="1.5" stroke-linecap="round" stroke-linejoin="round"/>
<path d="M19.25 7.33337H18.3334" stroke="white" stroke-width="1.5" stroke-linecap="round" stroke-linejoin="round"/>
<path d="M11 2.75V4.58333" stroke="white" stroke-width="1.5" stroke-linecap="round" stroke-linejoin="round"/>
<path d="M9.625 4.58337H12.375" stroke="white" stroke-width="1.5" stroke-linecap="round" stroke-linejoin="round"/>
<path d="M5.5 13.75H8.25" stroke="white" stroke-width="1.5" stroke-linecap="round" stroke-linejoin="round"/>
<path d="M13.75 13.75H16.5" stroke="white" stroke-width="1.5" stroke-linecap="round" stroke-linejoin="round"/>
</svg>
