<svg width="19" height="19" viewBox="0 0 19 19" fill="none" xmlns="http://www.w3.org/2000/svg">
<path d="M16.7662 8.85113C16.9942 9.17086 17.1082 9.33076 17.1082 9.56738C17.1082 9.80401 16.9942 9.96391 16.7662 10.2836C15.7416 11.7203 13.1251 14.8174 9.60815 14.8174C6.09124 14.8174 3.47473 11.7203 2.45018 10.2836C2.22216 9.96391 2.10815 9.80401 2.10815 9.56738C2.10815 9.33076 2.22216 9.17086 2.45018 8.85113C3.47473 7.41446 6.09124 4.31738 9.60815 4.31738C13.1251 4.31738 15.7416 7.41446 16.7662 8.85113Z" stroke="#333333" stroke-width="1.125"/>
<path d="M11.858 9.56641C11.858 8.32373 10.8507 7.31641 9.60803 7.31641C8.36536 7.31641 7.35803 8.32373 7.35803 9.56641C7.35803 10.8091 8.36536 11.8164 9.60803 11.8164C10.8507 11.8164 11.858 10.8091 11.858 9.56641Z" stroke="#333333" stroke-width="1.125"/>
</svg>
