<svg width="75" height="75" viewBox="0 0 75 75" fill="none" xmlns="http://www.w3.org/2000/svg">
<path d="M69.25 36.9698H68.875V26.7256C68.875 23.5283 66.5072 20.8816 63.4345 20.4271V18.1223C63.4345 14.6071 60.5748 11.7473 57.0595 11.7473H54.235L52.7477 7.78356C52.6462 7.51287 52.4443 7.29166 52.184 7.16583C51.9237 7.04001 51.625 7.01923 51.3498 7.10781L36.949 11.7473H7.55125C4.5595 11.7473 2.125 14.1818 2.125 17.1736V62.5696C2.125 66.0848 4.98475 68.9446 8.5 68.9446H62.5C66.0153 68.9446 68.875 66.0848 68.875 62.5696V52.3253H69.25C70.6975 52.3253 71.875 51.1478 71.875 49.7003V39.5948C71.875 38.1481 70.6975 36.9698 69.25 36.9698ZM55.0795 13.9981H57.0595C59.3335 13.9981 61.1845 15.8483 61.1845 18.1231V20.3513H57.4638L57.2395 19.7536L55.0795 13.9981ZM51.832 11.7481L53.6597 16.6186L55.0608 20.3513H17.5817L51.0182 9.57981L51.832 11.7481ZM7.55125 13.9981H29.9642L15.8342 18.5506L10.2445 20.3513H7.55125C5.8 20.3513 4.375 18.9263 4.375 17.1751C4.375 15.4238 5.8 13.9981 7.55125 13.9981ZM66.625 62.5696C66.625 64.8443 64.774 66.6946 62.5 66.6946H8.5C7.40635 66.6934 6.35783 66.2584 5.5845 65.4851C4.81117 64.7117 4.37619 63.6632 4.375 62.5696V21.5716C4.39075 21.5836 4.4095 21.5911 4.426 21.6031C4.6225 21.7418 4.82725 21.8686 5.04175 21.9811C5.0815 22.0021 5.1235 22.0201 5.164 22.0403C5.36275 22.1386 5.5675 22.2248 5.779 22.2983C5.815 22.3111 5.8495 22.3253 5.8855 22.3373C6.1195 22.4131 6.36025 22.4701 6.607 22.5136C6.66175 22.5233 6.71725 22.5308 6.77275 22.5391C7.02775 22.5758 7.2865 22.6013 7.55125 22.6013H62.5C64.774 22.6013 66.625 24.4516 66.625 26.7263V36.9706H59.1715C55.6562 36.9706 52.7965 39.8303 52.7965 43.3456V45.9511C52.7965 49.4663 55.6562 52.3261 59.1715 52.3261H66.625V62.5696ZM69.625 49.7003C69.625 49.7998 69.5855 49.8952 69.5152 49.9655C69.4448 50.0358 69.3495 50.0753 69.25 50.0753H59.1715C58.0778 50.0741 57.0293 49.6391 56.256 48.8658C55.4827 48.0925 55.0477 47.044 55.0465 45.9503V43.3448C55.0465 41.0701 56.8975 39.2198 59.1715 39.2198H69.25C69.3495 39.2198 69.4448 39.2593 69.5152 39.3297C69.5855 39.4 69.625 39.4954 69.625 39.5948V49.7003Z" fill="#A30133"/>
<path d="M62.0868 41.3916C61.2233 41.3924 60.3954 41.7357 59.7847 42.3462C59.174 42.9568 58.8305 43.7846 58.8295 44.6481C58.8295 46.4444 60.2905 47.9046 62.0868 47.9046C63.883 47.9046 65.3433 46.4436 65.3433 44.6481C65.3423 43.7847 64.9989 42.957 64.3884 42.3465C63.7779 41.736 62.9501 41.3926 62.0868 41.3916ZM62.0868 45.6554C61.5318 45.6554 61.0795 45.2039 61.0795 44.6489C61.0867 44.3866 61.1959 44.1374 61.384 43.9545C61.572 43.7715 61.824 43.6691 62.0864 43.6691C62.3488 43.6691 62.6008 43.7715 62.7889 43.9545C62.9769 44.1374 63.0861 44.3866 63.0933 44.6489C63.0933 45.2031 62.6418 45.6554 62.0868 45.6554Z" fill="#A30133"/>
</svg>
